<svg width="229" height="207" viewBox="0 0 229 207" fill="none" xmlns="http://www.w3.org/2000/svg">
<g clip-path="url(#clip0_2_119)">
<path d="M0.460459 170.119C2.45954 169.141 3.30821 166.546 5.47702 165.869C7.70241 165.173 10.173 166.546 12.2098 165.042C13.0961 164.384 13.7562 163.293 14.8312 162.898C15.7742 162.56 16.7548 162.936 17.6601 163.218C18.4333 163.462 19.2065 163.688 19.9798 163.932C23.0915 164.891 26.1845 165.832 29.2962 166.791C32.8229 167.862 36.3307 168.953 39.8574 170.025C40.1969 170.138 40.3477 169.592 40.0083 169.479C33.5584 167.505 27.1274 165.531 20.6776 163.556C19.1688 163.105 17.6035 162.409 16.0382 162.221C14.9444 162.09 14.0768 162.522 13.3036 163.237C12.2286 164.233 11.4177 165.155 9.85236 165.23C8.55107 165.305 7.26864 164.967 5.96735 165.173C3.28934 165.587 2.45954 168.502 0.196428 169.611C-0.143038 169.799 0.139852 170.288 0.460459 170.119Z" fill="black"/>
<path d="M34.3505 167.749C35.6895 168.088 36.7456 166.753 37.9526 166.358C39.5745 165.813 41.3096 166.038 42.7806 166.884C43.1012 167.072 43.3841 166.584 43.0635 166.396C41.8188 165.662 40.4043 165.361 38.971 165.549C38.3487 165.625 37.764 165.794 37.1982 166.038C36.3873 166.396 35.4443 167.43 34.5014 167.204C34.143 167.11 33.9922 167.655 34.3505 167.749Z" fill="black"/>
<path d="M48.891 166.339C47.6274 165.305 46.4204 164.196 45.2889 163.011C44.7608 162.466 44.2516 161.883 43.7613 161.3C43.4784 160.961 43.1955 160.623 42.9315 160.285C42.7429 160.04 42.5543 159.796 42.3845 159.551C42.0828 159.25 42.0828 158.874 42.4034 158.461C42.6297 158.555 42.988 158.329 42.7994 158.066C41.649 156.524 40.8004 154.832 40.2534 152.989C40.1403 153.102 40.0271 153.215 39.914 153.327C40.5363 153.497 40.9889 153.816 41.3284 154.343C41.517 154.644 42.0073 154.38 41.8188 154.061C39.0087 149.209 36.7079 144.095 34.9729 138.774C34.822 138.868 34.6522 138.962 34.5014 139.056C42.4034 146.803 45.9866 157.577 52.644 166.245C52.8703 166.527 53.3606 166.245 53.1343 165.963C46.4581 157.257 42.8372 146.445 34.8974 138.661C34.7088 138.473 34.3316 138.661 34.4259 138.943C36.1798 144.321 38.4807 149.473 41.3284 154.362C41.4981 154.268 41.649 154.174 41.8188 154.079C41.385 153.421 40.8192 152.989 40.0648 152.801C39.8574 152.744 39.6499 152.932 39.7254 153.139C40.2912 155.02 41.1587 156.768 42.328 158.348C42.46 158.216 42.592 158.085 42.724 157.953C42.1959 157.709 41.6113 157.953 41.4793 158.573C41.3096 159.457 42.3845 160.435 42.8749 161.055C44.5533 163.143 46.4581 165.042 48.5326 166.734C48.7778 166.96 49.1739 166.565 48.891 166.339Z" fill="black"/>
<path d="M46.9107 154.587C43.4406 149.416 40.6306 143.869 38.5561 138.003C38.4995 138.116 38.4241 138.228 38.3675 138.341C39.0087 138.191 39.5556 138.435 39.914 138.999C40.1026 139.319 40.5552 139.037 40.4043 138.717C37.4811 132.418 34.5014 125.856 34.7088 118.767C34.5391 118.823 34.3505 118.861 34.1808 118.917C39.2162 129.259 44.0064 139.733 48.5326 150.3C48.6647 150.601 49.155 150.375 49.0418 150.074C48.2875 147.818 47.552 145.543 46.7976 143.286C46.4393 142.177 46.0621 141.086 45.7038 139.977C45.4586 139.244 44.9305 137.645 45.9866 137.251C45.8735 137.213 45.7792 137.157 45.666 137.119C47.0239 139.77 48.3629 142.421 49.7208 145.073C49.8905 145.392 50.3809 145.11 50.2111 144.791C48.7401 141.914 48.0612 138.736 48.1932 135.502C48.0046 135.521 47.816 135.558 47.6463 135.577C51.569 145.298 56.1141 154.775 61.2249 163.932C61.3946 164.252 61.885 163.97 61.7153 163.65C56.6233 154.531 52.097 145.11 48.1932 135.427C48.08 135.145 47.6463 135.163 47.6463 135.502C47.5142 138.83 48.2309 142.083 49.7396 145.073C49.9094 144.979 50.0602 144.885 50.23 144.791C48.8721 142.139 47.5331 139.488 46.1752 136.837C46.1187 136.743 45.9678 136.668 45.8546 136.705C43.9687 137.401 45.1757 140.09 45.5906 141.35C46.5713 144.302 47.5331 147.273 48.5138 150.225C48.6835 150.15 48.8532 150.074 49.023 149.999C44.4968 139.432 39.7065 128.958 34.6711 118.617C34.5391 118.353 34.143 118.504 34.143 118.767C33.9167 125.95 36.9531 132.625 39.914 138.999C40.0837 138.905 40.2346 138.811 40.4043 138.717C39.914 137.946 39.1219 137.608 38.2166 137.796C38.0658 137.834 37.9715 138.003 38.028 138.134C40.1214 144.039 42.9503 149.642 46.4393 154.85C46.6279 155.17 47.1182 154.888 46.9107 154.587Z" fill="black"/>
<path d="M9.6449 190.934C16.1702 187.794 23.0538 184.597 30.5032 185.349C34.0299 185.707 37.4434 186.722 40.9512 187.173C42.724 187.399 44.5156 187.493 46.2884 187.286C47.948 187.079 49.5133 186.477 51.1352 186.12C53.2286 185.65 55.1334 186.139 57.1513 186.703C58.8109 187.154 60.4517 187.53 62.1679 187.136C62.5262 187.06 62.3753 186.515 62.017 186.59C58.5846 187.399 55.3597 184.936 51.8896 185.424C50.1734 185.669 48.5704 186.346 46.873 186.647C45.0814 186.948 43.2521 186.91 41.4416 186.684C37.8772 186.271 34.4071 185.218 30.8238 184.823C27.2971 184.428 23.8082 184.879 20.4324 185.857C16.5851 186.985 12.9453 188.715 9.36201 190.445C9.02254 190.595 9.32429 191.084 9.6449 190.934Z" fill="black"/>
<path d="M47.9292 206.522C50.1357 205.581 52.3045 204.547 54.3979 203.381C55.4917 202.761 56.5667 202.122 57.6417 201.445C58.6035 200.824 59.5653 199.941 60.6214 199.489C61.8096 199 63.6012 199.922 64.7893 200.279C66.0529 200.674 67.3165 201.05 68.5612 201.445C71.1449 202.234 73.7286 203.024 76.2935 203.814C76.6329 203.927 76.7838 203.381 76.4443 203.269C73.6909 202.423 70.9186 201.576 68.1651 200.73C66.845 200.317 65.5248 199.922 64.2047 199.508C63.1863 199.188 61.9039 198.53 60.8289 198.794C59.8293 199.038 58.9241 199.903 58.0754 200.467C56.9816 201.182 55.85 201.877 54.7185 202.535C52.4365 203.833 50.0791 204.999 47.6463 206.014C47.3068 206.164 47.6085 206.653 47.9292 206.522Z" fill="black"/>
<path d="M71.3901 207.105C72.8234 206.39 74.2567 205.657 75.69 204.942C77.0101 204.265 78.4245 203.363 79.9333 203.231C81.4609 203.081 82.649 204.077 83.9692 204.66C85.0819 205.149 86.2888 205.431 87.4958 205.506C90.3247 205.657 92.965 204.247 95.775 204.397C98.0193 204.529 100.282 206.371 102.489 205.206C102.81 205.036 102.527 204.547 102.206 204.717C100.829 205.45 99.3394 204.735 97.9816 204.303C96.8123 203.927 95.6807 203.758 94.4549 203.889C91.5506 204.19 88.8914 205.412 85.9117 204.717C83.4411 204.153 81.5552 202.103 78.896 202.874C77.6702 203.231 76.5198 203.908 75.3882 204.472C73.9549 205.187 72.5216 205.92 71.0883 206.635C70.7866 206.785 71.0695 207.274 71.3901 207.105Z" fill="black"/>
<path d="M82.4038 203.024C81.2346 202.009 80.1785 200.881 79.3109 199.583C78.9149 199 78.5566 198.38 78.2171 197.759C78.0474 197.44 77.8965 197.12 77.7645 196.8C77.6513 196.537 77.5382 196.293 77.4439 196.029C77.2741 195.747 77.3496 195.484 77.6702 195.24C77.8399 195.165 78.0096 195.089 78.1794 195.014C76.1049 191.968 74.8036 188.508 74.3698 184.86C74.2001 184.936 74.0492 184.992 73.8795 185.067C74.2189 185.5 74.5584 185.932 74.9167 186.383C75.1242 186.647 75.5202 186.308 75.3693 186.045C72.0878 180.197 70.3339 173.616 70.2962 166.922C70.1265 166.997 69.9756 167.054 69.8059 167.129C71.0883 168.163 72.069 169.442 72.6725 170.965C72.8422 170.89 73.0119 170.814 73.1817 170.739C71.7107 167.637 71.4089 164.139 72.2764 160.83C72.0878 160.83 71.9181 160.83 71.7295 160.83C75.5957 171.867 79.4429 182.886 83.3091 193.924C83.4222 194.262 83.9692 194.112 83.856 193.773C81.9135 188.113 80.9517 182.172 81.0083 176.173C80.8385 176.249 80.6876 176.305 80.5179 176.38C81.6683 177.414 82.385 178.712 82.649 180.235C82.7056 180.554 83.2148 180.479 83.1959 180.16C83.1393 179.013 83.0639 177.847 83.0073 176.7C82.8565 176.775 82.7244 176.869 82.5736 176.944C83.5731 177.584 83.7617 179.276 84.0823 180.329C84.4218 181.457 84.7612 182.585 85.1196 183.732C85.8174 186.064 86.534 188.377 87.2318 190.708C88.6463 195.353 90.0607 200.016 91.4751 204.66C91.5883 204.999 92.1352 204.867 92.0221 204.51C90.4945 199.508 88.9857 194.488 87.4581 189.486C86.7226 187.042 85.9682 184.597 85.2327 182.153C84.8555 180.893 84.4784 179.652 84.1012 178.392C83.856 177.621 83.5731 176.925 82.8753 176.474C82.7056 176.361 82.4416 176.512 82.4416 176.719C82.4981 177.866 82.5736 179.031 82.6302 180.178C82.8187 180.16 83.0073 180.122 83.1771 180.103C82.913 178.486 82.1209 177.076 80.8951 175.985C80.7065 175.816 80.4236 175.929 80.4048 176.192C80.3482 182.228 81.31 188.226 83.2714 193.942C83.46 193.886 83.6297 193.848 83.8183 193.792C79.9521 182.754 76.1049 171.736 72.2387 160.698C72.1444 160.454 71.7672 160.416 71.6918 160.698C70.7865 164.177 71.126 167.806 72.6536 171.04C72.7856 171.322 73.2948 171.115 73.1628 170.814C72.5216 169.197 71.5221 167.825 70.1453 166.734C69.9567 166.584 69.655 166.678 69.655 166.941C69.6927 173.729 71.4655 180.423 74.8036 186.346C74.9544 186.233 75.1053 186.12 75.2562 186.007C74.9167 185.575 74.5773 185.142 74.2189 184.691C74.0681 184.503 73.7097 184.654 73.7286 184.898C74.1623 188.659 75.4825 192.212 77.6136 195.334C77.8022 195.597 78.1794 195.428 78.1228 195.108C78.0285 194.582 77.4061 194.394 76.9724 194.713C76.1803 195.277 76.9535 196.612 77.2364 197.252C78.3114 199.64 79.9144 201.727 81.8946 203.438C82.2907 203.645 82.6867 203.25 82.4038 203.024Z" fill="black"/>
<path d="M62.6771 160.849C62.4319 157.314 68.8629 159.344 70.6545 159.683C73.5966 160.228 76.5197 160.774 79.4618 161.319C85.327 162.409 91.2111 163.5 97.0763 164.591C97.4346 164.666 97.5855 164.12 97.2272 164.045C90.4944 162.785 83.7805 161.544 77.0478 160.285C73.7474 159.664 70.4471 159.044 67.1467 158.442C65.9586 158.216 64.5818 157.972 63.4691 158.592C62.6205 159.044 62.0547 159.871 62.1301 160.849C62.1301 161.206 62.7148 161.206 62.6771 160.849Z" fill="black"/>
<path d="M93.1725 163.97C95.1339 164.177 96.3408 162.315 97.8684 161.413C99.1697 160.661 100.301 161.244 101.64 161.507C103.13 161.808 104.658 161.845 106.166 161.657C106.525 161.62 106.525 161.056 106.166 161.093C104.469 161.3 102.772 161.225 101.112 160.811C100.113 160.548 99.2074 160.228 98.2079 160.623C96.4351 161.3 95.2281 163.632 93.1725 163.406C92.8142 163.368 92.8142 163.932 93.1725 163.97Z" fill="black"/>
<path d="M129.137 200.129C133.663 198.549 138.227 196.97 142.904 195.841C147.789 194.676 152.711 194.206 157.728 194.356C162.688 194.506 167.61 195.071 172.551 195.522C177.511 195.992 182.471 196.443 187.431 196.913C193.126 197.44 198.841 197.966 204.536 198.511C204.895 198.549 204.895 197.985 204.536 197.947C194.371 197.007 184.206 196.067 174.022 195.108C164.234 194.206 154.39 192.871 144.639 194.882C139.283 195.992 134.116 197.797 128.967 199.583C128.647 199.696 128.798 200.241 129.137 200.129Z" fill="black"/>
<path d="M149.071 181.626C152.447 180.912 155.615 179.502 158.803 178.223C162.216 176.869 165.667 175.929 169.326 175.609C173.022 175.29 176.738 175.478 180.415 175.703C184.112 175.929 187.808 176.192 191.523 176.455C195.842 176.775 200.18 177.132 204.499 177.508C204.857 177.546 204.857 176.982 204.499 176.944C196.842 176.267 189.185 175.684 181.509 175.196C174.211 174.725 167.025 174.537 160.066 177.113C156.37 178.486 152.786 180.235 148.901 181.062C148.581 181.156 148.713 181.701 149.071 181.626Z" fill="black"/>
<path d="M192.542 159.946C195.239 157.897 198.086 155.885 201.104 154.343C202.575 153.591 204.159 152.989 205.819 152.857C207.61 152.707 209.402 153.064 211.156 153.29C214.72 153.722 218.304 153.985 221.887 154.211C224.263 154.362 227.281 154.7 228.959 152.632C229.185 152.35 228.789 151.955 228.563 152.237C226.658 154.587 222.641 153.703 220.039 153.534C216.455 153.29 212.91 152.951 209.345 152.5C207.818 152.312 206.309 152.162 204.781 152.444C203.273 152.707 201.858 153.309 200.519 154.023C197.615 155.565 194.861 157.483 192.24 159.476C191.976 159.683 192.259 160.172 192.542 159.946Z" fill="black"/>
<path d="M88.7217 156.844C91.3997 154.832 94.0966 152.838 96.7746 150.827C99.3395 148.909 101.735 146.897 105.092 146.727C108.26 146.577 111.504 146.934 114.653 147.198C118.048 147.48 121.424 147.856 124.781 148.326C127.609 148.721 130.985 149.774 133.663 148.307C133.984 148.138 133.701 147.649 133.38 147.818C132.004 148.57 130.476 148.57 128.948 148.382C127.308 148.175 125.667 147.893 124.026 147.668C120.858 147.235 117.671 146.878 114.465 146.615C111.315 146.351 108.052 145.975 104.903 146.163C101.98 146.333 99.8109 147.837 97.529 149.548C94.4926 151.804 91.4751 154.079 88.4388 156.336C88.1559 156.58 88.4388 157.069 88.7217 156.844Z" fill="black"/>
<path d="M194.824 176.719C194.994 175.478 195.239 174.274 195.597 173.071C195.767 172.507 195.937 171.943 196.163 171.378C196.295 171.04 196.653 170.476 197.143 170.608C197.389 170.683 197.502 171.529 197.521 171.698C197.558 171.999 197.973 172.093 198.068 171.773C198.954 168.896 199.972 165.738 202.688 164.064C202.537 163.989 202.405 163.895 202.254 163.82C202.254 164.29 202.235 164.779 202.235 165.249C202.235 165.512 202.632 165.644 202.764 165.399C204.442 161.92 206.271 158.273 209.666 156.167C209.534 156.054 209.383 155.96 209.251 155.847C207.554 160.228 205.574 164.497 203.329 168.633C203.178 168.896 203.556 169.235 203.782 168.972C205.045 167.467 206.328 165.963 207.988 164.873C207.856 164.741 207.724 164.609 207.591 164.478C205.498 168.878 203.216 173.165 200.708 177.339C200.519 177.659 201.01 177.941 201.198 177.621C203.688 173.447 205.988 169.16 208.082 164.76C208.195 164.534 207.95 164.196 207.686 164.365C205.988 165.493 204.668 167.016 203.367 168.558C203.518 168.671 203.669 168.784 203.82 168.896C206.083 164.722 208.082 160.416 209.798 155.979C209.892 155.753 209.572 155.546 209.383 155.659C205.894 157.821 204.008 161.526 202.273 165.098C202.443 165.155 202.632 165.192 202.801 165.249C202.801 164.779 202.82 164.29 202.82 163.82C202.82 163.613 202.575 163.462 202.386 163.575C199.557 165.324 198.445 168.596 197.521 171.623C197.709 171.642 197.898 171.679 198.068 171.698C197.973 170.739 197.106 169.103 196.05 170.326C195.522 170.946 195.314 171.961 195.088 172.732C194.711 173.973 194.447 175.252 194.258 176.549C194.239 176.925 194.767 177.076 194.824 176.719Z" fill="black"/>
<path d="M63.0543 144.979C64.5253 144.189 66.0152 143.399 67.6371 142.967C69.3533 142.516 71.0506 142.666 72.7668 142.892C76.1803 143.343 79.5938 143.794 82.9885 144.245C83.3468 144.302 83.3468 143.738 82.9885 143.681C79.3487 143.192 75.69 142.666 72.0502 142.233C70.3717 142.027 68.7686 142.027 67.1468 142.497C65.6003 142.948 64.167 143.719 62.7526 144.471C62.4319 144.678 62.7337 145.148 63.0543 144.979Z" fill="black"/>
<path d="M177.775 17.4367C179.133 16.2897 181.038 16.5153 182.528 17.2486C183.659 17.7939 184.583 18.9033 185.903 18.9597C187.129 18.9973 188.148 18.17 189.185 17.6247C189.883 17.2674 190.599 17.023 191.391 17.1922C192.24 17.3614 192.976 17.8503 193.749 18.1888C196.295 19.2982 197.992 17.7563 200.142 16.5341C200.746 16.1956 201.387 15.8948 202.085 15.8384C202.971 15.7632 203.763 16.158 204.555 16.4965C205.8 17.023 206.743 17.2298 208.006 16.7221C209.308 16.2144 210.364 16.2897 211.665 16.7597C212.495 17.0606 213.287 17.4367 214.154 17.6247C215.456 17.9255 216.851 17.8503 217.832 16.8538C218.096 16.5905 217.681 16.1956 217.436 16.4589C216.172 17.7375 214.249 17.1358 212.797 16.5717C211.326 16.0076 209.817 15.4059 208.252 15.9888C207.271 16.3649 206.611 16.6281 205.555 16.2709C204.838 16.0264 204.178 15.6315 203.442 15.4247C202.33 15.0862 201.292 15.2743 200.274 15.782C199.105 16.3649 198.086 17.2862 196.861 17.7751C195.239 18.4144 193.975 17.5683 192.504 16.9478C191.429 16.4965 190.411 16.4213 189.336 16.8914C188.034 17.4743 186.771 18.7529 185.243 18.2076C184.432 17.9255 183.791 17.2674 183.056 16.8538C182.433 16.5153 181.754 16.2709 181.056 16.1392C179.717 15.8948 178.416 16.1204 177.36 17.0042C177.096 17.2862 177.511 17.6811 177.775 17.4367Z" fill="black"/>
<path d="M184.564 30.2792C184.923 30.2792 184.923 29.7151 184.564 29.7151C184.206 29.7151 184.206 30.2792 184.564 30.2792Z" fill="#E8E8E8"/>
<path d="M188.336 32.3287C189.223 30.7305 191.316 31.5014 192.617 32.0279C193.919 32.5544 195.088 32.874 196.465 32.404C197.596 32.0091 198.614 31.257 199.784 30.9937C201.406 30.6176 202.33 31.9903 203.801 32.3099C206.102 32.8176 208.421 30.2604 210.59 31.3322C211.194 31.633 211.608 32.0279 212.325 31.9715C212.985 31.9339 213.589 31.6142 214.23 31.4638C216.022 31.0501 217.889 31.3698 219.492 32.2535C219.812 32.4228 220.095 31.9339 219.775 31.7646C218.756 31.2006 217.662 30.8621 216.512 30.7493C215.927 30.6929 215.324 30.7117 214.739 30.8057C214.041 30.8997 213.4 31.2005 212.721 31.3322C211.797 31.5014 211.401 31.0501 210.647 30.7305C210.269 30.58 209.855 30.5048 209.459 30.5236C208.516 30.5612 207.61 30.9561 206.743 31.2758C205.63 31.6894 204.442 32.0843 203.31 31.5202C202.349 31.0501 201.594 30.3356 200.463 30.3356C198.124 30.3544 196.483 32.592 194.013 31.9151C192.183 31.4074 189.241 29.6211 187.884 32.0279C187.676 32.3663 188.166 32.6484 188.336 32.3287Z" fill="black"/>
<path d="M170.043 54.8362C171.382 53.7832 172.909 53.8396 174.38 54.5165C175.191 54.8926 176.059 55.2499 176.907 54.7422C177.398 54.4413 177.718 53.9712 178.303 53.802C178.925 53.614 179.586 53.7456 180.189 53.896C181.264 54.1593 182.301 54.6293 183.414 54.7046C184.734 54.7986 185.941 54.2345 187.224 54.1029C188.6 53.9712 189.562 54.7986 190.844 54.9866C192.089 55.1558 193.051 54.1593 194.296 54.3473C195.804 54.5729 197.294 55.0806 198.784 55.4567C199.143 55.5507 199.293 55.0054 198.935 54.9114C197.37 54.5165 195.748 53.9148 194.145 53.7456C192.787 53.5952 191.806 54.7046 190.448 54.2909C189.185 53.9148 188.28 53.3695 186.922 53.5576C185.47 53.7644 184.149 54.3285 182.66 54.0088C181.509 53.7644 180.396 53.2191 179.208 53.1439C178.775 53.1251 178.322 53.1627 177.907 53.3319C177.379 53.5388 177.096 53.9712 176.606 54.2533C175.474 54.9114 173.947 53.52 172.74 53.4259C171.589 53.3319 170.533 53.7268 169.628 54.4225C169.345 54.667 169.76 55.0618 170.043 54.8362Z" fill="black"/>
<path d="M61.9227 13.8076C62.281 13.8076 62.281 13.2435 61.9227 13.2435C61.5644 13.2435 61.5644 13.8076 61.9227 13.8076Z" fill="#E8E8E8"/>
<path d="M63.5823 14.2401C63.9218 12.5666 66.1472 13.6384 66.9581 14.1461C67.8822 14.729 68.8629 15.2555 69.9944 14.9358C71.2203 14.5786 72.0501 13.5256 73.408 13.4504C74.6904 13.394 75.9351 13.9769 77.1421 14.3529C78.1794 14.6726 79.2732 14.8982 80.3482 14.635C81.6117 14.3341 82.6867 13.4504 83.9691 13.2247C86.4963 12.7923 88.7782 14.8418 91.3431 14.0521C91.6826 13.9392 91.5506 13.394 91.1922 13.5068C88.5142 14.3529 85.9682 11.9837 83.2525 12.8299C81.8569 13.2623 80.6876 14.2401 79.16 14.1837C77.7456 14.1273 76.4632 13.4504 75.1242 13.1119C74.068 12.8487 72.9931 12.7734 71.9747 13.2435C71.39 13.5068 70.8808 13.9392 70.2962 14.2213C69.3344 14.6726 68.5234 14.4093 67.6559 13.9204C66.7129 13.3752 65.902 12.7358 64.7516 12.8299C63.9406 12.8863 63.224 13.2999 63.0731 14.1273C62.9788 14.4469 63.5257 14.5974 63.5823 14.2401Z" fill="black"/>
<path d="M65.2985 124.032C67.5428 123.092 69.8059 124.765 72.069 124.878C73.2382 124.935 74.3698 124.652 75.5202 124.427C76.9724 124.145 78.2171 124.126 79.6127 124.709C80.4613 125.066 81.2346 125.292 82.1021 124.953C82.5924 124.765 83.0073 124.446 83.4977 124.276C84.0446 124.088 84.6104 124.051 85.195 124.051C87.2129 124.088 89.2309 124.784 91.1545 123.882C91.4751 123.731 91.1922 123.242 90.8716 123.393C88.816 124.352 86.534 123.299 84.3652 123.524C83.3279 123.637 82.649 124.239 81.6872 124.521C80.5368 124.859 79.4052 123.882 78.2737 123.712C75.8408 123.336 73.54 124.69 71.0883 124.201C69.1269 123.806 67.1467 122.659 65.1476 123.505C64.827 123.637 64.9779 124.182 65.2985 124.032Z" fill="black"/>
<path d="M24.5248 96.3349C26.1705 96.3349 27.5046 95.0048 27.5046 93.364C27.5046 91.7232 26.1705 90.3931 24.5248 90.3931C22.8792 90.3931 21.5451 91.7232 21.5451 93.364C21.5451 95.0048 22.8792 96.3349 24.5248 96.3349Z" fill="#0A3871"/>
<path d="M197.973 75.9145C199.129 75.9145 200.067 74.9801 200.067 73.8274C200.067 72.6747 199.129 71.7402 197.973 71.7402C196.817 71.7402 195.88 72.6747 195.88 73.8274C195.88 74.9801 196.817 75.9145 197.973 75.9145Z" fill="#0A3871"/>
<path d="M179.133 3.20259C179.987 3.20259 180.679 2.51227 180.679 1.66073C180.679 0.809181 179.987 0.118866 179.133 0.118866C178.279 0.118866 177.586 0.809181 177.586 1.66073C177.586 2.51227 178.279 3.20259 179.133 3.20259Z" fill="#0A3871"/>
<path d="M111.013 136.912C112.076 136.912 112.937 136.053 112.937 134.994C112.937 133.935 112.076 133.076 111.013 133.076C109.951 133.076 109.09 133.935 109.09 134.994C109.09 136.053 109.951 136.912 111.013 136.912Z" fill="#0A3871"/>
<path d="M22.3372 27.9852C23.5558 27.9852 24.5437 27.0003 24.5437 25.7853C24.5437 24.5703 23.5558 23.5853 22.3372 23.5853C21.1185 23.5853 20.1306 24.5703 20.1306 25.7853C20.1306 27.0003 21.1185 27.9852 22.3372 27.9852Z" fill="#0A3871"/>
<path d="M98.4153 105.172C99.1132 105.172 99.6789 104.608 99.6789 103.913C99.6789 103.217 99.1132 102.653 98.4153 102.653C97.7175 102.653 97.1518 103.217 97.1518 103.913C97.1518 104.608 97.7175 105.172 98.4153 105.172Z" fill="#0A3871"/>
<path d="M217.681 115.89C218.744 115.89 219.605 115.032 219.605 113.972C219.605 112.913 218.744 112.054 217.681 112.054C216.619 112.054 215.758 112.913 215.758 113.972C215.758 115.032 216.619 115.89 217.681 115.89Z" fill="#0A3871"/>
<path d="M8.00414 147.592C8.79573 147.592 9.43745 146.953 9.43745 146.163C9.43745 145.374 8.79573 144.734 8.00414 144.734C7.21255 144.734 6.57084 145.374 6.57084 146.163C6.57084 146.953 7.21255 147.592 8.00414 147.592Z" fill="#0A3871"/>
<path d="M66.6187 36.5407C64.9779 39.8689 63.3183 43.197 61.6775 46.5252C68.4669 55.6071 75.2562 64.6703 82.0455 73.7522C83.7994 71.101 85.5345 68.3933 87.2884 65.6669C91.4185 59.1986 95.3601 52.8055 99.132 46.4688C97.8495 43.2158 96.5483 39.9441 95.2658 36.6911C94.436 36.2587 93.6062 35.845 92.7764 35.4125C84.7424 35.4313 76.7083 35.4501 68.6932 35.4689C67.9765 35.845 67.2976 36.2022 66.6187 36.5407Z" fill="#0A3871"/>
<path d="M61.9039 46.6756C63.3372 43.5355 64.8082 40.4142 66.3169 37.3116C66.4678 36.992 65.9963 36.6911 65.8266 37.0296C64.3179 40.1321 62.8468 43.2534 61.4135 46.3936C61.2626 46.7132 61.753 47.0141 61.9039 46.6756Z" fill="black"/>
<path d="M61.5267 47.0141C68.1651 56.096 74.9356 65.0652 81.8381 73.9591C82.0644 74.2411 82.4604 73.8463 82.2341 73.5642C75.3694 64.7079 68.6366 55.7764 62.017 46.732C61.8096 46.45 61.3192 46.732 61.5267 47.0141Z" fill="black"/>
<path d="M66.4489 36.992C67.241 36.5783 68.0142 36.1459 68.8063 35.7322C69.1269 35.563 68.844 35.0741 68.5234 35.2433C67.7313 35.657 66.9581 36.0895 66.166 36.5031C65.8266 36.6912 66.1283 37.1612 66.4489 36.992Z" fill="black"/>
<path d="M69.2778 35.7698C75.1619 35.7698 81.0649 35.7698 86.9489 35.7698C87.3073 35.7698 87.3073 35.2057 86.9489 35.2057C81.0649 35.2057 75.1619 35.2057 69.2778 35.2057C68.9195 35.2057 68.9195 35.7698 69.2778 35.7698Z" fill="black"/>
<path d="M99.396 46.4124C98.2079 43.2722 96.982 40.1697 95.7185 37.0484C95.5864 36.7099 95.0395 36.8604 95.1715 37.1988C96.4351 40.3013 97.661 43.4227 98.8491 46.5628C98.9811 46.9013 99.528 46.7508 99.396 46.4124Z" fill="black"/>
<path d="M98.7737 46.6944C93.2479 55.72 87.609 64.6891 81.8569 73.583C81.6495 73.8839 82.1398 74.1659 82.3473 73.8651C88.0993 64.9712 93.7382 56.0208 99.264 46.9765C99.4526 46.6756 98.9622 46.3748 98.7737 46.6944Z" fill="black"/>
<path d="M95.379 36.4655C94.7189 36.0519 94.0589 35.6194 93.3988 35.2057C93.097 35.0177 92.8141 35.4878 93.1159 35.6946C93.776 36.1083 94.4361 36.5408 95.0961 36.9544C95.4167 37.1613 95.6996 36.6724 95.379 36.4655Z" fill="black"/>
<path d="M92.7576 35.1493C87.8353 35.1493 82.913 35.1493 78.0096 35.1493C77.6513 35.1493 77.6513 35.7134 78.0096 35.7134C82.9319 35.7134 87.8542 35.7134 92.7576 35.7134C93.1159 35.7134 93.1159 35.1493 92.7576 35.1493Z" fill="black"/>
<path d="M62.1302 46.9577C65.506 45.5099 68.8818 44.062 72.2576 42.6142C72.5971 42.4637 72.2953 41.9937 71.9747 42.1253C68.5989 43.5731 65.2231 45.021 61.8473 46.4688C61.5267 46.6193 61.8096 47.1081 62.1302 46.9577Z" fill="black"/>
<path d="M66.5432 36.8228C68.6177 37.1424 70.6545 37.5937 72.6725 38.1578C73.0308 38.2518 73.1817 37.7065 72.8233 37.6125C70.8054 37.0296 68.7686 36.5971 66.6941 36.2775C66.3358 36.2211 66.166 36.7663 66.5432 36.8228Z" fill="black"/>
<path d="M72.5216 38.0638C72.9742 39.474 73.3703 40.8843 73.7097 42.3321C73.7852 42.6894 74.3321 42.539 74.2567 42.1817C73.9172 40.7339 73.5211 39.3236 73.0685 37.9134C72.9554 37.5749 72.4084 37.7065 72.5216 38.0638Z" fill="black"/>
<path d="M73.3891 38.1202C78.4434 38.1202 83.4788 38.1202 88.5331 38.1202C88.8914 38.1202 88.8914 37.5561 88.5331 37.5561C83.4788 37.5561 78.4434 37.5561 73.3891 37.5561C73.0308 37.5561 73.0308 38.1202 73.3891 38.1202Z" fill="black"/>
<path d="M88.2879 38.233C88.0993 39.2672 87.9107 40.3202 87.7222 41.3544C87.6656 41.7116 88.2125 41.862 88.2691 41.5048C88.4577 40.4706 88.6463 39.4176 88.8348 38.3835C88.8914 38.0262 88.3445 37.8758 88.2879 38.233Z" fill="black"/>
<path d="M74.0115 42.3697C78.4246 42.3697 82.8376 42.3697 87.2696 42.3697C87.6279 42.3697 87.6279 41.8056 87.2696 41.8056C82.8565 41.8056 78.4434 41.8056 74.0115 41.8056C73.6532 41.8056 73.6532 42.3697 74.0115 42.3697Z" fill="black"/>
<path d="M89.08 38.1202C91.1357 37.6878 93.1725 37.2553 95.2281 36.8228C95.5865 36.7476 95.4356 36.2023 95.0773 36.2775C93.0216 36.71 90.9848 37.1425 88.9292 37.5749C88.5708 37.6502 88.7217 38.1954 89.08 38.1202Z" fill="black"/>
<path d="M88.1371 42.2005C90.0419 42.5013 91.8146 43.5731 93.5497 44.3816C95.3979 45.2466 97.2272 46.1115 99.0754 46.9765C99.3961 47.1269 99.6978 46.638 99.3583 46.4876C97.397 45.5662 95.4545 44.6637 93.4931 43.7423C91.8335 42.9526 90.1173 41.956 88.288 41.6552C87.9296 41.5988 87.7788 42.1441 88.1371 42.2005Z" fill="black"/>
<path d="M74.1812 43.2347C76.6329 53.3132 79.0658 63.4105 81.5175 73.489C81.6118 73.8463 82.1398 73.6959 82.0644 73.3386C79.6127 63.2601 77.1798 53.1628 74.7281 43.0843C74.6338 42.727 74.0869 42.8774 74.1812 43.2347Z" fill="black"/>
<path d="M87.345 43.9116C85.0441 53.614 83.1394 63.4293 81.6683 73.301C81.6118 73.6582 82.1587 73.8087 82.2152 73.4514C83.6863 63.5797 85.5911 53.7832 87.8919 44.062C87.9862 43.7047 87.4393 43.5543 87.345 43.9116Z" fill="black"/>
<path d="M87.5336 25.0896C88.3823 22.9273 88.8537 20.6521 88.9292 18.3205C88.948 17.9632 88.3823 17.9632 88.3634 18.3205C88.288 20.5957 87.8165 22.8144 86.9867 24.9392C86.8547 25.2776 87.4016 25.4093 87.5336 25.0896Z" fill="black"/>
<path d="M91.3997 25.4656C93.2102 23.4161 95.247 21.611 97.529 20.0879C97.8307 19.8811 97.5478 19.3922 97.2461 19.599C94.9264 21.1409 92.833 22.9836 91.0037 25.0708C90.7585 25.334 91.1545 25.7289 91.3997 25.4656Z" fill="black"/>
<path d="M95.115 28.9442C97.4535 28.2485 99.8675 27.9853 102.3 28.1733C102.659 28.1921 102.659 27.628 102.3 27.6092C99.8109 27.4212 97.3592 27.6844 94.9641 28.3989C94.6246 28.5118 94.7567 29.0571 95.115 28.9442Z" fill="black"/>
<path d="M55.3786 15.7632C55.6049 19.4862 53.5115 23.04 50.1545 24.6571C49.966 24.7511 49.9848 25.0332 50.1545 25.146C53.2286 26.9887 54.6431 30.3733 55.454 33.7014C55.5483 34.0587 56.0764 33.9083 56.0009 33.551C55.1522 30.0724 53.6435 26.5562 50.4374 24.6571C50.4374 24.8263 50.4374 24.9768 50.4374 25.146C53.9641 23.4349 56.1895 19.6554 55.9443 15.7632C55.9255 15.4059 55.3597 15.4059 55.3786 15.7632Z" fill="black"/>
<path d="M55.586 15.7632C55.3408 19.6742 57.5662 23.4537 61.0929 25.146C61.0929 24.9768 61.0929 24.8263 61.0929 24.6571C57.868 26.575 56.3592 30.0912 55.5106 33.5886C55.4163 33.9459 55.9632 34.0963 56.0575 33.739C56.8684 30.3921 58.2829 26.9887 61.3758 25.146C61.5455 25.052 61.5644 24.7511 61.3758 24.6571C58.0188 23.04 55.9066 19.4862 56.1329 15.7632C56.1706 15.4059 55.6049 15.4059 55.586 15.7632Z" fill="black"/>
<path d="M147.412 156.919C148.072 156.637 148.977 156.223 150.014 155.64C151.749 154.681 152.617 154.192 153.145 153.421C153.824 152.406 153.56 151.861 154.446 150.845C154.578 150.676 155.201 150.018 156.011 149.661C157.407 149.078 158.708 149.774 160.877 150.545C162.876 151.259 164.442 151.598 167.572 152.293C168.817 152.575 170.326 152.857 172.513 153.534C173.136 153.722 173.626 153.891 173.965 154.004C174.003 154.399 174.022 155.415 173.362 156.336C173.06 156.75 172.645 157.088 171.985 157.389C170.458 158.103 169.005 157.972 167.78 157.915C165.139 157.803 166.233 158.179 160.01 158.291C158.652 158.31 157.539 158.31 156.766 158.31C155.804 158.968 154.842 159.645 153.862 160.341C152.202 161.544 150.618 162.748 149.109 163.932C148.543 161.601 147.977 159.25 147.412 156.919Z" fill="black"/>
<path d="M139.547 132.851C138.19 133.565 138.039 133.829 132.984 138.116C125.101 144.791 124.234 145.148 117.086 151.372C110.24 157.314 108.958 158.799 107.656 160.755C104.413 165.7 103.696 169.837 103.489 171.849C103.206 174.556 102.828 178.317 105.224 181.288C106.732 183.149 108.694 183.92 109.354 184.165C111.334 184.917 112.956 184.823 115.879 184.616C119.764 184.334 122.725 183.582 123.894 183.262C125.177 182.905 128.156 182.021 131.891 180.178C135.398 178.448 136.907 177.17 141.697 173.955C143.828 172.525 146.978 170.438 150.938 168.032C151.184 166.151 150.976 164.685 150.769 163.763C150.278 161.582 149.279 160.078 148.166 158.423C147.261 157.069 146.393 156.035 145.79 155.358C147.204 154.286 149.052 152.745 150.995 150.676C152.296 149.285 154.352 147.066 156.068 143.945C158.18 140.109 160.293 136.235 158.935 133.565C156.804 129.372 146.657 129.184 139.547 132.851Z" fill="#130FD2"/>
<path opacity="0.18" d="M156.445 134.9C155.37 137.382 153.597 140.898 150.769 144.659C146.657 150.093 142.508 153.102 136.247 157.558C118.538 170.156 113.786 173.033 114.314 174.237C115.03 175.872 125.007 172.939 126.459 172.507C137.058 169.385 144.866 164.572 149.75 161.056C148.505 159.156 147.261 157.257 146.016 155.377C147.544 154.286 149.656 152.556 151.636 149.98C152.73 148.57 154.39 146.389 155.465 143.098C156.558 139.827 156.596 136.912 156.445 134.9Z" fill="#9B9797"/>
<path d="M139.472 132.832C132.758 137.815 126.214 143.042 119.915 148.514C116.897 151.128 113.88 153.741 111.051 156.543C108.543 159.025 106.204 161.77 104.79 165.042C103.319 168.426 102.904 172.337 103.262 176.004C103.564 179.031 104.677 182.078 107.449 183.657C110.353 185.293 114.012 185.124 117.218 184.785C121.16 184.39 125.045 183.431 128.722 181.946C136.926 178.618 143.357 172.394 151.108 168.276C151.429 168.107 151.146 167.618 150.825 167.787C144.356 171.228 138.85 176.192 132.362 179.633C128.967 181.438 125.309 182.754 121.537 183.563C118.048 184.296 114.125 184.86 110.58 184.184C108.92 183.864 107.317 183.187 106.129 181.946C104.978 180.724 104.356 179.125 104.035 177.49C103.338 173.936 103.658 169.912 104.828 166.49C105.997 163.068 108.279 160.191 110.768 157.633C113.352 154.982 116.181 152.538 118.953 150.112C125.648 144.246 132.588 138.642 139.755 133.34C140.038 133.114 139.774 132.625 139.472 132.832Z" fill="black"/>
<path d="M120.99 171.379C127.176 168.991 132.777 165.418 138.095 161.507C140.717 159.589 143.3 157.596 145.865 155.603C148.392 153.628 150.806 151.541 152.768 149.003C152.994 148.721 152.504 148.439 152.277 148.721C150.278 151.316 147.77 153.403 145.205 155.415C142.678 157.389 140.132 159.344 137.529 161.244C132.324 165.042 126.874 168.539 120.839 170.852C120.5 170.965 120.65 171.51 120.99 171.379Z" fill="black"/>
<path d="M145.582 155.546C149.222 158.592 151.146 163.312 150.637 168.032C150.599 168.389 151.165 168.389 151.202 168.032C151.712 163.18 149.712 158.292 145.978 155.151C145.714 154.907 145.318 155.302 145.582 155.546Z" fill="black"/>
<path d="M150.599 162.785C151.674 162.466 152.617 161.563 153.522 160.924C154.654 160.134 155.766 159.344 156.898 158.555C157.2 158.348 156.917 157.859 156.615 158.066C155.597 158.78 154.559 159.514 153.541 160.228C152.598 160.886 151.561 161.902 150.448 162.24C150.09 162.334 150.241 162.879 150.599 162.785Z" fill="black"/>
<path d="M147.487 157.182C149.618 156.298 151.58 155.095 153.352 153.609C153.635 153.365 153.22 152.97 152.956 153.215C151.278 154.644 149.392 155.791 147.355 156.637C147.016 156.787 147.166 157.332 147.487 157.182Z" fill="black"/>
<path d="M153.145 153.365C153.503 153.365 153.503 152.801 153.145 152.801C152.787 152.801 152.787 153.365 153.145 153.365Z" fill="black"/>
<path d="M153.824 152.688C154.144 151.936 154.484 151.109 155.087 150.526C155.898 149.736 156.879 149.849 157.916 150.074C159.84 150.507 161.726 151.109 163.612 151.654C165.366 152.143 167.12 152.575 168.93 152.782C169.986 152.895 170.873 153.027 171.816 153.497C172.513 153.835 173.117 154.174 173.89 154.249C174.248 154.286 174.248 153.722 173.89 153.685C172.853 153.591 172.042 152.876 171.061 152.557C170.08 152.237 168.987 152.256 167.968 152.086C165.743 151.729 163.574 151.052 161.424 150.413C160.368 150.112 159.312 149.811 158.237 149.567C157.445 149.398 156.615 149.191 155.823 149.435C154.446 149.849 153.786 151.315 153.277 152.538C153.145 152.876 153.692 153.027 153.824 152.688Z" fill="black"/>
<path d="M156.822 158.968C160.858 158.367 164.856 158.273 168.93 158.197C170.344 158.179 171.853 158.009 172.985 157.088C173.947 156.298 174.494 155.151 174.229 153.929C174.154 153.572 173.607 153.722 173.683 154.08C174.041 155.791 172.494 157.05 170.967 157.427C169.402 157.803 167.704 157.615 166.101 157.652C162.933 157.709 159.802 157.972 156.672 158.442C156.313 158.48 156.483 159.025 156.822 158.968Z" fill="black"/>
<path d="M171.137 155.226C172.532 154.23 173.947 153.233 175.342 152.237C175.436 151.597 175.738 150.206 176.889 149.021C177.228 148.664 178.02 147.837 179.208 147.611C180.453 147.367 181.415 147.931 182.49 148.42C184.225 149.209 185.903 149.51 189.223 150.15C191.844 150.638 193.164 150.883 195.05 150.789C197.615 150.638 199.444 149.962 200.538 151.033C200.651 151.146 201.123 151.654 201.085 152.274C201.028 153.064 200.18 153.572 199.501 153.967C196.54 155.659 194.88 156.148 194.88 156.148C190.694 157.37 188.581 157.991 186.771 158.141C185.3 158.254 183.206 158.31 180.679 157.915C179.944 160.435 177.718 162.052 175.625 161.92C172.928 161.751 170.439 158.724 171.137 155.226Z" fill="black"/>
<path d="M144.055 138.604C144.47 137.345 145.243 135.746 146.695 135.22C147.638 134.881 148.505 135.107 148.788 135.182C150.542 135.615 154.144 134.994 161.33 133.772C164.894 133.17 169.401 132.287 174.588 130.97C174.607 131.929 174.588 133.189 174.531 134.656C174.399 137.946 174.06 140.428 173.984 141.011C173.664 143.343 173.098 147.216 171.382 151.917C170.948 153.121 170.514 154.117 170.212 154.794C170.948 155.132 171.74 155.584 172.513 156.223C175.7 158.761 176.625 162.353 176.926 163.876C176.474 164.421 175.795 165.23 174.927 166.151C171.419 169.874 168.176 171.961 161.99 175.778C158.18 178.129 155.389 179.84 150.919 182.472C145.488 185.669 141.094 188.151 135.625 189.712C134.267 190.106 132.117 190.633 129.401 190.351C128.081 190.219 125.705 189.975 123.423 188.32C120.499 186.214 119.575 183.13 119.198 181.777C118.35 178.749 118.67 175.91 119.462 172.958C120.009 170.89 121.989 164.026 128.873 156.298C130.25 154.756 134.172 151.278 141.98 144.321C143.866 142.647 145.413 141.274 146.45 140.372C145.658 139.77 144.866 139.187 144.055 138.604Z" fill="#130FD2"/>
<path opacity="0.18" d="M169.703 133.396C169.27 135.051 168.572 137.439 167.516 140.24C157.879 165.7 136.341 176.7 138.095 179.445C139.378 181.476 151.674 176.418 160.538 171.096C167.176 167.11 172.117 162.842 175.418 159.626C174.89 158.855 174.079 157.803 172.853 156.806C171.665 155.847 170.533 155.264 169.684 154.907C170.269 154.061 171.042 152.782 171.702 151.146C172.136 150.093 172.513 148.965 173.004 146.671C173.796 143.042 174.116 140.165 174.211 139.263C174.437 137.1 174.644 134.299 174.607 130.989C172.966 131.779 171.344 132.587 169.703 133.396Z" fill="#130FD2"/>
<path d="M174.324 130.97C174.343 134.524 174.116 138.078 173.626 141.613C173.173 144.791 172.608 148.062 171.438 151.071C170.175 154.324 168.006 156.693 165.385 158.931C162.706 161.206 160.01 163.444 157.313 165.681C154.22 168.257 151.108 170.814 148.015 173.39C147.732 173.616 148.128 174.011 148.411 173.785C154.088 169.084 159.764 164.402 165.403 159.645C167.893 157.539 170.156 155.358 171.514 152.331C172.834 149.398 173.475 146.182 173.984 143.023C174.626 139.037 174.927 135.013 174.89 130.97C174.89 130.594 174.324 130.594 174.324 130.97Z" fill="black"/>
<path d="M144.375 139.131C145.149 139.545 145.922 139.958 146.714 140.372C147.034 140.541 147.317 140.052 146.997 139.883C146.224 139.469 145.45 139.056 144.658 138.642C144.338 138.473 144.055 138.962 144.375 139.131Z" fill="black"/>
<path d="M146.714 140.146C140 145.599 132.947 150.996 127.345 157.615C122.517 163.312 118.538 170.532 118.557 178.185C118.557 181.551 119.481 185.067 121.971 187.455C124.46 189.862 128.062 190.802 131.457 190.633C135.606 190.426 139.547 188.79 143.244 186.985C147.204 185.048 150.957 182.754 154.729 180.479C162.499 175.778 171.174 171.397 177.002 164.233C177.228 163.951 176.832 163.556 176.606 163.838C171.721 169.855 164.856 173.71 158.312 177.659C154.71 179.84 151.146 182.059 147.468 184.127C143.866 186.158 140.113 188.095 136.134 189.242C132.4 190.313 128.232 190.539 124.705 188.677C121.31 186.91 119.575 183.488 119.217 179.765C118.519 172.243 122.31 164.76 126.893 159.044C132.607 151.917 140.075 146.239 147.129 140.522C147.393 140.316 146.997 139.921 146.714 140.146Z" fill="black"/>
<path d="M170.08 155.02C173.626 156.712 176.097 160.059 176.681 163.932C176.738 164.29 177.285 164.139 177.228 163.782C176.643 159.777 174.041 156.261 170.382 154.531C170.043 154.38 169.76 154.869 170.08 155.02Z" fill="black"/>
<path d="M171.212 155.509C171.966 155.208 172.57 154.7 173.211 154.211C173.965 153.628 174.739 153.064 175.493 152.481C175.776 152.256 175.493 151.767 175.21 151.992C174.531 152.5 173.852 153.008 173.173 153.534C172.513 154.042 171.853 154.662 171.061 154.963C170.741 155.095 170.873 155.64 171.212 155.509Z" fill="black"/>
<path d="M175.776 152.256C176.153 151.146 176.606 150.056 177.209 149.04C178.039 147.649 179.284 147.799 180.679 148.156C182.848 148.702 184.923 149.529 187.11 150.018C191.354 150.958 195.71 151.278 200.048 150.996C200.406 150.977 200.406 150.413 200.048 150.432C194.937 150.77 189.788 150.244 184.847 148.852C183.659 148.514 182.509 148.081 181.321 147.743C180.415 147.479 179.34 147.179 178.397 147.367C177.549 147.536 177.058 148.175 176.643 148.89C176.059 149.905 175.606 150.996 175.229 152.105C175.116 152.444 175.663 152.594 175.776 152.256Z" fill="black"/>
<path d="M176.587 161.337C178.001 160.266 179.397 159.194 180.811 158.122C181.094 157.897 180.811 157.408 180.528 157.633C179.114 158.705 177.718 159.777 176.304 160.849C176.021 161.074 176.304 161.563 176.587 161.337Z" fill="black"/>
<path d="M180.793 157.991C185.394 158.987 190.09 158.235 194.447 156.58C196.427 155.828 198.69 154.982 200.387 153.703C201.575 152.82 201.745 151.127 200.18 150.526C199.84 150.394 199.689 150.939 200.029 151.071C200.878 151.391 200.972 152.312 200.387 152.951C200.104 153.271 199.708 153.478 199.331 153.703C198.558 154.136 197.766 154.531 196.974 154.907C195.295 155.697 193.56 156.373 191.769 156.9C188.242 157.915 184.545 158.254 180.925 157.464C180.585 157.37 180.434 157.915 180.793 157.991Z" fill="black"/>
<path d="M131.645 76.7797C134.512 74.4105 138.793 71.5524 144.507 69.8601C147.185 69.0704 150.542 68.0926 154.993 68.4687C161.82 69.0516 166.516 72.3985 168.176 73.6207C170.778 75.5199 172.551 77.5318 173.645 78.942C173.852 92.1231 174.135 105.323 174.493 118.504C174.607 122.565 174.72 126.646 174.852 130.707C172.174 132.362 168.421 134.223 163.668 135.314C152.541 137.852 143.281 134.468 139.528 132.832C139.51 129.504 139.302 124.502 138.284 118.504C136.624 108.651 134.04 104.684 132.419 96.2034C131.608 91.8222 130.834 85.2411 131.645 76.7797Z" fill="black"/>
<path d="M165.743 80.0325C164.819 81.0479 164.649 82.1949 164.706 86.5948C164.743 91.2204 164.988 94.3794 165.139 98.046C165.252 100.697 165.347 102.803 165.29 105.548C165.234 109.008 165.007 111.848 164.8 113.747C162.952 115.815 161.311 117.432 160.085 118.598C157.332 121.212 154.333 124.032 149.901 126.683C148.147 127.717 146.638 128.47 145.62 128.94C144.696 128.789 143.659 128.564 142.527 128.282C139.849 127.605 138.736 127.003 136.718 127.003C136.115 127.003 134.21 127.003 134.022 127.68C133.852 128.244 134.908 129.128 135.738 129.56C136.511 129.955 136.85 129.842 137.624 130.199C138.491 130.613 139.057 131.215 139.396 131.666C139.038 132.174 138.491 132.945 137.888 133.941C137.19 135.107 137.039 135.558 136.228 136.95C135.379 138.416 134.946 139.15 134.569 139.526C133.984 140.071 133.626 140.184 131.004 141.35C128.402 142.516 127.949 142.779 127.949 143.098C127.949 143.418 128.458 143.493 130.476 144.358C132.117 145.054 132.268 145.204 133.116 145.449C134.172 145.75 134.814 145.938 135.587 145.768C136.813 145.524 137.605 144.603 137.944 144.114C138.114 144.264 138.529 144.584 139.076 144.603C139.51 144.603 139.868 144.433 140.151 144.208C141.339 143.362 141.924 141.801 143.093 140.052C143.3 139.751 144.036 138.642 145.224 137.401C145.959 136.611 146.638 136.028 147.129 135.634C147.789 135.483 148.77 135.258 149.939 134.919C154.484 133.622 157.765 132.061 160.519 130.745C162.122 129.974 163.932 128.958 167.534 126.946C170.665 125.198 172.287 124.22 173.72 122.302C173.871 122.095 174.644 121.061 175.323 119.538C175.531 119.068 176.266 117.394 176.662 114.461C176.851 113.164 176.851 112.449 176.87 108.388C176.907 103.217 176.907 103.837 176.907 103.311C176.889 95.7332 176.493 96.4101 176.361 89.4529C176.342 88.7948 176.323 87.0085 175.776 84.7521C175.191 82.3077 174.456 81.2171 174.041 80.6718C173.513 79.9761 172.872 79.1488 171.778 78.6787C169.779 77.7949 167.12 78.5095 165.743 80.0325Z" fill="#D2B48C"/>
<path opacity="0.25" d="M171.797 78.6599C172.249 80.1453 172.796 82.2889 173.173 84.8838C173.626 88.0239 173.796 91.4837 172.777 100.528C171.929 108.087 171.514 111.866 170.42 115.401C168.855 120.441 167.723 124.107 164.272 127.003C162.046 128.864 159.614 129.729 154.729 131.44C151.146 132.7 148.072 133.452 145.959 133.922C144.451 135.953 142.206 138.529 139.019 140.974C136.53 142.892 134.135 144.208 132.155 145.11C132.437 145.298 133.607 146.051 135.191 145.844C137.039 145.599 138.039 144.283 138.208 144.039C138.567 144.302 139.095 144.584 139.679 144.49C140.886 144.302 141.528 142.591 141.848 141.82C142.546 140.222 143.942 138.022 147.072 135.615C149.147 135.069 151.957 134.242 155.219 133.001C159.764 131.252 162.82 129.56 166.101 127.736C171.363 124.803 172.551 123.6 173.419 122.434C175.003 120.309 175.663 118.128 175.946 117.169C176.455 115.458 176.549 113.54 176.738 109.798C176.87 107.015 176.87 104.872 176.87 103.254C176.87 100.472 176.813 98.4033 176.757 96.617C176.681 94.0221 176.53 90.976 176.153 87.3282C175.87 84.6769 175.663 83.6239 175.059 82.4393C174.135 80.559 172.758 79.3556 171.797 78.6599Z" fill="#9B9797"/>
<path d="M165.46 79.9573C164.479 82.4017 164.366 85.0341 164.423 87.6478C164.479 90.5247 164.63 93.3827 164.762 96.2596C165.026 102.089 165.215 107.936 164.517 113.747C164.479 114.104 165.045 114.104 165.083 113.747C165.762 108.068 165.611 102.333 165.347 96.6357C165.215 93.8152 165.064 90.9947 164.988 88.1555C164.913 85.429 164.97 82.6837 166.007 80.1077C166.139 79.7692 165.592 79.6188 165.46 79.9573Z" fill="black"/>
<path d="M165.611 113.258C163.876 114.217 162.48 115.608 161.141 117.056C159.689 118.617 158.237 120.14 156.615 121.531C153.296 124.408 149.562 126.777 145.563 128.62C145.224 128.77 145.526 129.259 145.846 129.109C149.694 127.341 153.296 125.085 156.521 122.359C158.124 121.024 159.595 119.557 161.009 118.034C162.48 116.436 163.951 114.818 165.875 113.765C166.214 113.559 165.931 113.07 165.611 113.258Z" fill="black"/>
<path d="M145.695 128.658C143.621 128.225 141.528 127.774 139.453 127.304C138.416 127.078 137.36 126.796 136.304 126.608C135.644 126.495 134.946 126.439 134.361 126.815C133.456 127.398 133.456 128.47 134.267 129.109C134.851 129.579 135.606 129.786 136.304 130.011C137.435 130.369 138.397 130.82 139.132 131.779C139.359 132.061 139.849 131.779 139.623 131.497C138.963 130.651 138.171 130.049 137.152 129.692C136.454 129.447 135.681 129.297 135.04 128.94C134.587 128.695 134.003 128.319 134.342 127.642C134.663 127.003 135.474 127.059 136.058 127.153C137.624 127.379 139.189 127.83 140.754 128.187C142.357 128.545 143.96 128.883 145.563 129.222C145.903 129.278 146.054 128.733 145.695 128.658Z" fill="black"/>
<path d="M138.68 131.873C137.85 133.396 137.001 134.9 136.172 136.423C135.757 137.157 135.398 137.946 134.908 138.661C134.399 139.394 133.72 139.77 132.928 140.146C131.438 140.842 129.835 141.406 128.402 142.215C127.76 142.591 127.345 143.268 127.892 143.926C128.571 144.734 129.91 144.415 130.815 144.264C132.06 144.057 133.248 143.644 134.38 143.117C136.737 141.989 138.736 140.222 140.17 138.04C140.377 137.74 139.887 137.458 139.679 137.758C138.416 139.714 136.662 141.293 134.606 142.384C133.626 142.892 132.569 143.305 131.494 143.55C130.891 143.7 130.25 143.832 129.608 143.851C129.024 143.888 128.873 143.963 128.59 143.381C128.232 143.042 128.269 142.816 128.684 142.704C128.816 142.647 128.93 142.591 129.062 142.534C130.269 141.97 131.494 141.425 132.701 140.861C133.644 140.428 134.568 140.052 135.21 139.206C135.964 138.21 136.492 137.025 137.096 135.934C137.793 134.675 138.491 133.415 139.17 132.174C139.34 131.835 138.85 131.553 138.68 131.873Z" fill="black"/>
<path d="M147.298 135.991C152.334 134.581 157.218 132.7 161.896 130.369C164.215 129.203 166.478 127.943 168.685 126.552C170.665 125.311 172.758 124.051 174.173 122.152C174.38 121.851 173.89 121.569 173.683 121.87C172.212 123.863 169.911 125.16 167.836 126.439C165.724 127.736 163.536 128.94 161.311 130.049C156.766 132.287 152.032 134.092 147.148 135.464C146.808 135.54 146.959 136.085 147.298 135.991Z" fill="black"/>
<path d="M165.837 80.465C167.402 77.4001 171.419 78.0958 173.4 80.277C175.776 82.9094 175.889 86.7641 176.153 90.1111C176.719 97.4255 176.832 104.796 176.379 112.111C176.153 115.665 175.625 119.425 173.249 122.246C173.023 122.528 173.419 122.923 173.645 122.641C175.776 120.083 176.511 116.849 176.813 113.615C177.209 109.478 177.209 105.285 177.172 101.13C177.134 96.7862 176.926 92.4239 176.53 88.0991C176.229 84.8462 175.644 81.2548 172.947 79.0924C170.646 77.2497 166.799 77.3061 165.328 80.183C165.177 80.5026 165.667 80.7847 165.837 80.465Z" fill="black"/>
<path d="M130.306 144.584C131.683 145.204 133.343 146.145 134.908 146.145C136.417 146.126 137.529 144.885 138.548 143.945C141.471 141.237 144.394 138.529 147.317 135.84C147.581 135.596 147.185 135.201 146.921 135.446C144.451 137.74 141.98 140.015 139.51 142.309C138.416 143.305 137.284 144.734 135.907 145.355C134.286 146.088 132.06 144.772 130.608 144.114C130.269 143.945 129.986 144.433 130.306 144.584Z" fill="black"/>
<path d="M137.982 144.189C138.604 145.355 139.981 144.885 140.679 144.076C142.056 142.459 143.131 140.504 144.3 138.755C144.507 138.454 144.017 138.172 143.81 138.473C143.074 139.564 142.339 140.654 141.603 141.745C141.188 142.346 139.359 145.599 138.472 143.907C138.303 143.587 137.812 143.869 137.982 144.189Z" fill="black"/>
<path d="M133.607 143.268C134.172 143.569 134.87 143.869 135.493 143.569C135.813 143.399 135.945 143.136 136.096 142.835C136.36 142.328 136.624 141.933 137.115 141.613C137.416 141.406 137.133 140.917 136.832 141.124C136.379 141.425 136.002 141.801 135.738 142.29C135.549 142.647 135.436 143.08 134.946 143.117C134.587 143.155 134.191 142.929 133.89 142.779C133.588 142.628 133.286 143.099 133.607 143.268Z" fill="black"/>
<path d="M129.74 35.8262C129.08 37.1612 128.42 39.3988 128.213 40.1321C127.911 41.1851 127.232 43.6483 126.855 46.9201C126.648 48.7252 126.421 50.6995 126.61 53.3132C126.704 54.5542 126.836 56.5097 127.572 58.9353C128.062 60.59 128.779 62.978 130.721 65.4224C132.419 67.5472 134.361 68.8822 135.907 69.6908C136.888 69.7096 138.076 69.6531 139.396 69.4087C141.773 68.9574 143.621 68.0737 144.866 67.3592C145.035 68.3181 145.262 69.3335 145.545 70.3865C146.129 72.5676 146.846 74.4856 147.562 76.1403C148.336 76.0086 149.26 75.783 150.241 75.3317C153.352 73.8839 154.842 71.2138 155.37 70.1044C155.087 69.0138 154.861 67.8292 154.654 66.607C153.937 62.0378 154.126 57.9576 154.578 54.6482C154.974 54.7798 155.615 54.949 156.407 54.9114C157.954 54.8174 159.01 53.9713 159.538 53.52C159.991 53.1439 162.046 51.32 161.971 48.6124C161.952 47.973 161.914 46.4124 160.802 45.5662C159.764 44.7953 158.369 45.0774 157.35 45.2842C156.181 45.5286 155.314 46.0175 154.786 46.356C155.182 45.0586 156.011 41.7304 154.786 37.8569C154.522 37.0296 152.768 31.7647 147.6 29.4895C140.585 26.3682 132.154 30.9938 129.74 35.8262Z" fill="#D2B48C"/>
<path opacity="0.24" d="M151.051 35.939C151.202 37.6877 151.315 40.2262 151.051 43.2347C150.241 52.3542 146.62 58.6909 145.677 60.2704C144.243 62.6772 141.792 66.1746 137.869 69.6156C139.038 69.4651 140.377 69.2019 141.81 68.6942C145.752 67.3028 148.392 64.9148 149.826 63.3541C149.939 65.4413 150.297 67.9797 151.146 70.7626C151.523 71.9472 151.938 73.0378 152.372 74.0155C153.371 72.7181 154.352 71.4207 155.351 70.1045C155.144 68.8822 154.955 67.5848 154.823 66.2498C154.39 62.2071 154.39 58.4841 154.616 55.1747C155.465 55.1935 156.69 55.1183 157.992 54.6106C163.687 52.3542 166.931 43.3851 163.857 38.4963C163.725 38.2894 163.046 37.2364 161.65 36.2963C157.332 33.4006 151.844 35.6006 151.051 35.939Z" fill="#9B9797"/>
<path d="M128.364 39.568C127.987 38.2706 127.459 35.7886 128.005 32.7425C128.175 31.8023 128.76 28.775 130.834 26.387C133.871 22.9084 137.68 23.5665 142.621 21.799C145.752 20.6896 150.052 18.358 154.408 12.8675C154.012 14.8982 153.616 16.9478 153.22 18.9785C153.899 19.1666 156.181 19.6555 158.52 18.5085C162.405 16.6093 162.744 12.0213 162.763 11.8145C163.235 12.8675 164.083 15.1991 163.706 18.17C163.442 20.2007 162.706 21.7238 162.178 22.6452C162.405 22.8896 163.612 24.1306 165.007 23.9426C166.705 23.7169 168.289 21.4041 167.836 18.4144C168.213 19.5238 168.666 21.3477 168.553 23.5853C168.402 26.3118 167.497 28.3613 166.893 29.4707C167.044 29.6023 168.006 30.4673 169.364 30.2981C170.552 30.1476 171.57 29.2827 171.966 28.0605C171.872 29.3203 171.646 31.1442 170.91 33.2314C169.911 36.0518 169.081 36.2775 168.666 38.2894C168.006 41.4484 169.703 42.5202 169.251 45.3406C168.873 47.7098 167.327 49.1953 165.366 51.0944C161.801 54.5354 157.709 56.3969 154.276 57.4311C154.427 56.3781 154.597 55.3251 154.748 54.2722C155.182 54.5354 155.936 54.8927 156.879 54.855C158.803 54.7798 160.01 53.0687 160.651 52.1474C161.386 51.1132 162.612 49.3457 161.952 47.4466C161.405 45.9047 159.953 45.2654 159.821 45.209C158.124 44.4945 155.936 45.1338 154.522 46.8637C153.729 43.7612 152.956 40.6774 152.164 37.5749C149.486 35.8826 146.827 34.2091 144.149 32.5168C142.829 32.2724 139.227 31.7835 135.191 33.5698C131.117 35.3749 129.043 38.4399 128.364 39.568Z" fill="black"/>
<path d="M128.081 39.4928C126.478 45.4723 125.516 51.8278 126.987 57.9388C128.194 62.9028 131.249 68.5626 136.454 70.1797C136.794 70.2925 136.945 69.7472 136.605 69.6344C131.381 68.0173 128.458 62.1319 127.383 57.1679C126.12 51.3389 127.081 45.3218 128.609 39.6433C128.722 39.3048 128.175 39.1544 128.081 39.4928Z" fill="black"/>
<path d="M136.869 70.0856C145.563 69.2019 152.824 62.9404 154.861 54.4413C154.936 54.0841 154.408 53.9337 154.314 54.2909C152.334 62.5079 145.337 68.6566 136.869 69.5215C136.511 69.5591 136.492 70.1232 136.869 70.0856Z" fill="black"/>
<path d="M154.371 54.5918C158.256 56.961 162.046 51.9969 162.292 48.5183C162.424 46.6756 161.575 45.2654 159.746 44.7389C158.048 44.25 156.2 44.7577 154.993 46.0363C154.748 46.2996 155.144 46.6944 155.389 46.4312C156.389 45.3594 157.897 44.8893 159.35 45.209C160.104 45.3782 160.934 45.7919 161.367 46.4688C161.839 47.2021 161.782 48.2175 161.669 49.026C161.217 51.9405 157.973 56.1148 154.654 54.0841C154.352 53.9149 154.05 54.4037 154.371 54.5918Z" fill="black"/>
<path d="M154.333 54.5542C153.597 59.7627 153.861 65.0464 155.106 70.1609C155.2 70.5181 155.747 70.3677 155.653 70.0104C154.427 64.99 154.163 59.8003 154.88 54.7046C154.918 54.3473 154.371 54.1969 154.333 54.5542Z" fill="black"/>
<path d="M144.583 67.4344C145.167 70.4805 146.073 73.4326 147.317 76.2907C147.468 76.6292 147.959 76.3283 147.808 76.0087C146.582 73.207 145.695 70.2925 145.13 67.284C145.054 66.9267 144.526 67.0771 144.583 67.4344Z" fill="black"/>
<path d="M147.713 76.3659C151.353 75.783 154.427 73.2822 155.804 69.8788C155.936 69.5403 155.389 69.3899 155.257 69.7284C153.956 72.9625 150.995 75.2753 147.562 75.8206C147.204 75.877 147.355 76.4223 147.713 76.3659Z" fill="black"/>
<path d="M145.035 68.0924C145.809 68.13 146.337 67.6035 146.921 67.1523C147.695 66.5506 148.43 65.9113 149.109 65.2343C150.373 63.9745 151.391 62.5267 152.051 60.872C152.183 60.5335 151.636 60.3831 151.504 60.7216C150.919 62.1882 150.014 63.4856 148.92 64.6138C148.43 65.1403 147.902 65.6104 147.355 66.0805C146.752 66.5882 145.884 67.5659 145.035 67.5283C144.677 67.5095 144.677 68.0736 145.035 68.0924Z" fill="black"/>
<path d="M145.073 67.7917C146.676 66.7576 148.166 65.573 149.562 64.2756C149.826 64.0311 149.43 63.6174 149.166 63.8807C147.808 65.1593 146.356 66.3063 144.79 67.3217C144.47 67.4909 144.771 67.9798 145.073 67.7917Z" fill="black"/>
<path d="M133.984 40.5834C132.928 45.3782 132.324 50.2483 132.192 55.1559C132.192 55.438 132.569 55.532 132.72 55.3063C133.456 54.1405 134.191 52.9559 134.927 51.7901C135.115 51.4893 134.625 51.1884 134.436 51.5081C133.701 52.6739 132.965 53.8585 132.23 55.0243C132.4 55.0807 132.588 55.1183 132.758 55.1747C132.89 50.3235 133.494 45.491 134.531 40.7526C134.606 40.3766 134.059 40.2262 133.984 40.5834Z" fill="black"/>
<path d="M134.738 62.2259C134.286 61.3798 133.984 60.4772 133.908 59.5183C133.852 58.8413 134.003 56.0961 135.285 57.1866C135.964 57.7696 135.87 59.0482 135.889 59.8943C135.889 60.2892 135.889 60.7029 135.851 61.0977C135.832 61.3798 135.794 61.6618 135.738 61.9251C135.247 62.2635 134.87 62.2447 134.625 61.8875C134.38 61.6242 133.965 62.0191 134.229 62.2823C135.04 63.1097 136.096 63.1473 136.322 61.8499C136.492 60.9285 136.492 59.9507 136.417 59.0294C136.36 58.296 136.36 57.2431 135.813 56.679C135.002 55.8516 133.852 56.6225 133.531 57.5063C132.947 59.0858 133.512 61.0789 134.267 62.508C134.418 62.8276 134.908 62.5456 134.738 62.2259Z" fill="black"/>
<path d="M138.642 45.303C139.208 47.9543 142.697 48.1611 143.734 45.7167C143.866 45.3782 143.319 45.2278 143.187 45.5662C142.338 47.5594 139.623 47.1833 139.189 45.1526C139.114 44.8141 138.567 44.9457 138.642 45.303Z" fill="black"/>
<path d="M137.529 38.7783C138.246 37.18 140.094 36.4091 141.792 36.7664C143.545 37.1424 144.884 38.4963 145.752 39.9817C145.941 40.3014 146.431 40.0193 146.242 39.6997C145.243 37.9886 143.659 36.4655 141.622 36.1647C139.792 35.9014 137.831 36.7664 137.039 38.4775C136.888 38.8347 137.379 39.1168 137.529 38.7783Z" fill="black"/>
<path d="M126.478 39.3988C126.987 38.3459 127.873 37.1989 129.175 37.2177C130.419 37.2365 131.325 38.3271 131.947 39.286C132.136 39.5869 132.626 39.3048 132.437 39.004C131.721 37.857 130.646 36.6724 129.175 36.6536C127.666 36.6348 126.61 37.8758 126.006 39.1168C125.837 39.4364 126.327 39.7185 126.478 39.3988Z" fill="black"/>
<path d="M129.816 47.9167C130.149 47.9167 130.419 46.6792 130.419 45.1526C130.419 43.6261 130.149 42.3885 129.816 42.3885C129.483 42.3885 129.212 43.6261 129.212 45.1526C129.212 46.6792 129.483 47.9167 129.816 47.9167Z" fill="black"/>
<path d="M131.551 77.6633C131.494 78.3591 131.419 79.318 131.381 80.4274C131.212 84.2256 131.362 87.1025 131.419 87.8735C131.57 90.3743 131.909 93.646 132.701 97.4443C131.947 98.3092 130.816 99.5879 129.363 101.092C126.61 103.969 125.195 105.436 122.932 106.959C120.405 108.651 118.651 109.177 117.708 109.422C116.52 109.704 115.389 109.967 114.012 109.666C111.768 109.159 110.429 107.504 109.938 106.865C108.694 105.285 108.411 103.743 107.902 100.735C107.524 98.5349 107.449 96.8614 107.336 93.6273C107.279 92.0854 107.204 90.2051 107.241 87.6854C107.279 84.8462 107.43 81.4804 107.845 77.7197C108.034 76.0275 108.298 73.9403 108.712 71.5711C108.392 71.1198 108.052 70.6685 107.694 70.1985C107.317 69.7096 106.959 69.2395 106.581 68.7694C105.62 69.578 104.677 70.4053 103.715 71.2138C103.47 71.3078 103.036 71.4583 102.508 71.4019C101.508 71.3079 100.924 70.6121 100.716 70.3865C99.792 69.3335 99.9241 67.9985 99.9618 67.7352C101.263 66.325 102.564 64.9336 103.884 63.5233C103.903 62.7148 104.017 61.6618 104.337 60.496C104.582 59.6311 104.884 58.9165 105.167 58.3148C105.412 57.826 105.752 57.2807 106.185 56.7354C106.959 55.72 107.788 55.0055 108.467 54.5166C107.92 54.761 107.788 54.761 107.751 54.7234C107.656 54.573 108.543 53.4636 109.787 53.3508C110.485 53.2756 111.032 53.5388 111.409 53.7081C111.994 53.9901 112.39 54.3474 112.635 54.6106C113.804 53.614 114.974 52.6175 116.143 51.6397C116.558 51.8842 116.973 52.1662 117.388 52.4482C118.35 53.1064 119.217 53.7645 119.99 54.4038C119.707 54.761 119.349 55.1559 118.896 55.5508C118.142 56.2089 117.388 56.6038 116.803 56.867C117.161 56.9798 117.803 57.2431 118.123 57.8636C118.444 58.4653 118.312 59.1234 118.123 59.9507C117.991 60.5148 117.821 60.9661 117.689 61.2669C117.765 62.0567 117.803 63.1285 117.576 64.3319C117.218 66.3062 116.388 67.7729 115.822 68.619C115.804 69.3523 115.785 70.4993 115.822 71.9096C115.973 77.7197 116.822 81.1231 117.369 85.4102C117.689 87.8547 118.01 91.4837 117.916 96.0529C118.35 95.7708 118.972 95.3195 119.67 94.7366C121.442 93.2512 122.574 91.7657 124.064 89.5846C125.535 87.4598 126.497 85.8803 127.798 83.7744C128.609 82.4017 129.91 80.3146 131.551 77.6633Z" fill="#D2B48C"/>
<path opacity="0.24" d="M114.408 60.496C114.012 61.3609 113.616 62.2447 113.22 63.1472C112.069 65.8549 111.126 68.4497 110.353 70.9318C110.183 74.8428 110.089 78.1146 110.014 80.4838C109.919 84.0752 110.146 88.3623 110.561 96.9366C110.73 100.472 110.881 102.615 112.541 104.176C114.276 105.793 116.69 105.831 118.048 105.831C125.29 105.812 130.702 99.663 132.192 97.8767C130.174 101.299 127.873 103.537 126.308 104.853C124.535 106.338 122.253 108.2 118.708 109.121C115.709 109.911 114.351 109.742 113.993 109.666C111.409 109.046 109.976 106.902 109.467 106.169C108.241 104.345 107.845 102.446 107.619 98.3656C107.392 94.1725 107.637 93.0631 107.713 87.2905C107.77 81.7812 107.562 80.2205 107.977 76.4035C108.222 74.1659 108.524 72.3232 108.769 71.0822C108.034 70.3112 107.298 69.5403 106.563 68.7882C105.94 69.3335 105.299 69.86 104.658 70.4053C104.243 70.7625 103.809 71.1198 103.394 71.4582C103.017 71.4959 102.47 71.477 101.885 71.2326C100.377 70.5933 99.4337 68.7318 99.9052 68.0925C100.207 67.66 100.999 67.9985 102.093 67.9985C103.979 68.0173 105.242 67.0583 107.751 65.2532C109.523 63.9558 111.56 62.5079 114.408 60.496Z" fill="#9B9797"/>
<path d="M131.306 77.5129C126.949 83.5111 123.724 90.393 118.218 95.5075C117.954 95.752 118.35 96.1468 118.614 95.9024C124.158 90.7503 127.402 83.8307 131.796 77.7949C132.022 77.5129 131.532 77.2308 131.306 77.5129Z" fill="black"/>
<path d="M115.087 110.099C122.555 109.61 127.911 103.367 132.4 98.0648C132.626 97.7828 132.23 97.3879 132.004 97.67C127.647 102.86 122.367 109.065 115.106 109.554C114.729 109.554 114.729 110.118 115.087 110.099Z" fill="black"/>
<path d="M111.541 57.1303C111.579 58.6157 112.56 59.8943 113.993 60.308C114.351 60.402 114.502 59.8567 114.144 59.7627C112.956 59.4242 112.145 58.3525 112.107 57.1303C112.088 56.773 111.523 56.773 111.541 57.1303Z" fill="black"/>
<path d="M112.126 56.961C112.315 55.3251 115.238 56.5097 116.03 56.9234C116.803 57.3183 117.576 57.7131 117.746 58.6533C117.878 59.3678 117.652 60.1199 117.463 60.8157C117.369 61.1729 117.916 61.3233 118.01 60.9661C118.274 60.0259 118.557 58.9541 118.161 58.0328C117.784 57.0926 116.747 56.6602 115.898 56.2465C115.03 55.8328 114.087 55.532 113.107 55.6448C112.711 55.7012 112.201 55.7952 111.881 56.0585C111.541 56.3217 111.617 56.5097 111.56 56.9798C111.523 57.3183 112.088 57.3183 112.126 56.961Z" fill="black"/>
<path d="M117.275 60.7028C117.218 62.1319 117.539 63.5233 117.199 64.9524C116.879 66.2686 116.237 67.4908 115.596 68.6754C115.426 68.995 115.917 69.2771 116.086 68.9574C116.747 67.7164 117.407 66.4566 117.746 65.1028C118.104 63.6361 117.784 62.1883 117.84 60.7028C117.859 60.3268 117.293 60.3268 117.275 60.7028Z" fill="black"/>
<path d="M115.596 68.6941C115.162 78.6034 118.01 88.3059 117.557 98.2152C117.539 98.5725 118.104 98.5725 118.123 98.2152C118.576 88.3059 115.728 78.6034 116.162 68.6941C116.181 68.3369 115.615 68.3369 115.596 68.6941Z" fill="black"/>
<path d="M106.336 68.901C106.902 69.6907 107.505 70.4428 108.184 71.1385C108.43 71.4018 108.826 71.0069 108.58 70.7437C107.939 70.0668 107.355 69.371 106.827 68.6189C106.6 68.3181 106.11 68.6001 106.336 68.901Z" fill="black"/>
<path d="M108.505 70.9882C107.43 77.0992 106.902 83.3043 106.921 89.5093C106.94 92.593 107.091 95.6956 107.392 98.7605C107.638 101.374 107.939 104.119 109.316 106.413C110.561 108.501 112.748 110.08 115.238 110.024C115.596 110.005 115.596 109.441 115.238 109.46C111.749 109.554 109.505 106.451 108.694 103.405C107.788 100.058 107.713 96.4101 107.581 92.9691C107.298 85.6735 107.807 78.3402 109.071 71.1574C109.109 70.7813 108.562 70.6309 108.505 70.9882Z" fill="black"/>
<path d="M104.941 62.5455C103.168 64.031 101.452 65.5916 99.8298 67.2275C99.5658 67.4908 99.9807 67.8856 100.226 67.6224C101.867 65.9865 103.564 64.4258 105.337 62.9404C105.62 62.7147 105.224 62.3199 104.941 62.5455Z" fill="black"/>
<path d="M99.66 67.7352C99.3772 69.9164 101.037 71.7591 103.243 71.7403C103.602 71.7403 103.602 71.1762 103.243 71.1762C101.339 71.195 99.9807 69.5967 100.226 67.7352C100.282 67.378 99.7166 67.378 99.66 67.7352Z" fill="black"/>
<path d="M100.188 67.6036C102.168 67.66 103.545 69.4275 103.13 71.3455C103.055 71.7027 103.602 71.8532 103.677 71.4959C104.186 69.1831 102.564 67.1147 100.188 67.0395C99.8298 67.0395 99.8298 67.6036 100.188 67.6036Z" fill="black"/>
<path d="M103.903 71.4019C106.053 69.4463 108.241 67.5096 110.334 65.4977C111.296 64.5763 112.22 63.6361 113.088 62.6208C113.559 62.0755 114.747 61.0037 114.766 60.2516C114.766 60.1575 114.71 60.0447 114.634 60.0071C114.597 59.9883 114.559 59.9695 114.54 59.9695C114.427 59.9131 114.276 59.9131 114.201 60.0071C114.182 60.0259 114.163 60.0447 114.144 60.0823C113.918 60.3644 114.314 60.7592 114.54 60.4772C114.559 60.4584 114.578 60.4396 114.597 60.402C114.483 60.4208 114.37 60.4396 114.257 60.4396C114.219 60.2704 114.163 60.2704 114.087 60.4584C113.993 60.59 113.899 60.7216 113.786 60.8533C113.559 61.1353 113.352 61.4174 113.107 61.6994C112.73 62.1695 112.315 62.6208 111.919 63.072C111.089 63.9746 110.221 64.8207 109.335 65.6481C107.411 67.4532 105.45 69.2019 103.507 70.9882C103.224 71.2514 103.639 71.6463 103.903 71.4019Z" fill="black"/>
<path d="M104.149 63.5985C104.281 62.696 104.413 61.7934 104.545 60.8908C104.639 60.2139 104.714 59.4618 105.092 58.8601C105.959 57.4687 107.185 58.4652 107.845 59.4054C108.128 59.8003 108.392 60.2327 108.675 60.6276C108.826 60.8532 109.561 61.6618 109.467 61.9438C109.561 61.8686 109.655 61.8122 109.731 61.737C109.693 61.737 109.674 61.737 109.637 61.737C109.278 61.7182 109.278 62.2823 109.637 62.3011C109.674 62.3011 109.693 62.3011 109.731 62.3011C109.863 62.3011 109.976 62.2071 109.995 62.0943C110.127 61.6242 109.806 61.3421 109.561 60.9661C109.09 60.2703 108.637 59.5558 108.147 58.8789C107.638 58.1832 106.977 57.5063 106.034 57.6003C105.129 57.6943 104.582 58.39 104.299 59.1986C103.828 60.5336 103.79 62.0566 103.583 63.4481C103.545 63.8053 104.092 63.9558 104.149 63.5985Z" fill="black"/>
<path d="M105.035 61.4738C105.544 62.4704 106.393 63.4858 107.6 63.561C108.599 63.6362 109.542 63.0721 109.806 62.0943C109.901 61.7371 109.354 61.5866 109.259 61.9439C109.014 62.8465 108.015 63.1849 107.185 62.9029C106.393 62.6208 105.884 61.9251 105.525 61.2106C105.356 60.8721 104.865 61.1542 105.035 61.4738Z" fill="black"/>
<path d="M105.733 57.8072C105.827 56.8858 106.883 56.6414 107.6 56.8858C108.354 57.1303 108.939 57.8072 109.467 58.3525C109.882 58.7849 110.693 59.3866 110.806 59.9883C110.957 60.7969 109.938 61.3422 109.259 61.549C108.92 61.643 109.052 62.1883 109.41 62.0943C110.24 61.8499 111.447 61.1165 111.579 60.1388C111.636 59.7439 111.391 59.5371 111.126 59.255C110.598 58.6909 110.089 58.1456 109.542 57.6003C108.807 56.8482 107.864 56.0397 106.732 56.2277C105.884 56.3593 105.261 56.9234 105.167 57.7884C105.129 58.1644 105.695 58.1644 105.733 57.8072Z" fill="black"/>
<path d="M106.751 56.4157C107.015 56.1149 107.147 55.72 107.392 55.4191C107.996 54.667 108.939 55.3627 109.561 55.814C110.768 56.6602 112.051 58.202 110.957 59.6687C110.749 59.9695 111.24 60.2516 111.447 59.9507C112.616 58.3712 111.466 56.5473 110.127 55.532C109.505 55.0619 108.562 54.2157 107.713 54.4602C106.959 54.667 106.827 55.532 106.355 56.0396C106.11 56.2841 106.506 56.679 106.751 56.4157Z" fill="black"/>
<path d="M108.656 54.7046C109.316 53.8961 110.184 53.0499 111.202 53.8961C111.881 54.4414 112.315 55.2123 112.56 56.0208C112.673 56.3593 113.201 56.2277 113.107 55.8704C112.786 54.7798 112.051 53.52 110.957 53.0687C109.844 52.6174 108.92 53.5012 108.26 54.3097C108.034 54.573 108.43 54.9866 108.656 54.7046Z" fill="black"/>
<path d="M112.824 54.7798C113.993 53.7832 115.162 52.7867 116.332 51.8089C116.614 51.5645 116.2 51.1696 115.936 51.414C114.766 52.4106 113.597 53.4072 112.428 54.385C112.145 54.6294 112.56 55.0243 112.824 54.7798Z" fill="black"/>
<path d="M116.992 57.1866C118.104 56.3781 119.179 55.5132 120.179 54.573C120.443 54.3286 120.047 53.9337 119.783 54.1781C118.802 55.0807 117.784 55.9268 116.709 56.6978C116.407 56.9046 116.69 57.3935 116.992 57.1866Z" fill="black"/>
<path d="M125.459 55.7764C131.751 55.7764 136.85 50.6916 136.85 44.4193C136.85 38.1469 131.751 33.0621 125.459 33.0621C119.168 33.0621 114.069 38.1469 114.069 44.4193C114.069 50.6916 119.168 55.7764 125.459 55.7764Z" stroke="black" stroke-width="3" stroke-miterlimit="10"/>
<path d="M118.557 45.8107C122.744 43.1406 127.025 40.621 131.4 38.2518C131.721 38.0826 131.438 37.5937 131.117 37.7629C126.742 40.1133 122.461 42.6329 118.274 45.3218C117.972 45.5286 118.255 46.0175 118.557 45.8107Z" fill="black"/>
<path d="M119.028 50.7371C122.48 48.2175 125.969 45.7919 129.533 43.4227C129.835 43.2158 129.552 42.727 129.25 42.9338C125.705 45.303 122.197 47.7474 118.746 50.2482C118.444 50.4551 118.727 50.944 119.028 50.7371Z" fill="black"/>
<path d="M105.671 62.4978C105.417 62.4978 105.138 62.458 105.138 62.7642" stroke="black" stroke-width="0.5" stroke-linecap="round"/>
<path d="M105.481 62.7642C105.594 62.748 106.034 62.6474 105.755 62.5359C105.527 62.4447 105.288 62.4455 105.062 62.5359" stroke="black" stroke-width="0.5" stroke-linecap="round"/>
<path d="M105.274 63.9143C104.979 64.8439 104.702 65.7873 104.29 66.6737C104.255 66.7477 103.914 67.2668 104.171 67.1881C104.531 67.0775 104.886 66.9477 105.244 66.827C106.014 66.5669 106.805 66.3545 107.564 66.0605C107.788 65.9735 108.376 65.7849 108.497 65.512C108.518 65.4642 108.391 65.4963 108.34 65.5086C108.046 65.5797 107.756 65.6661 107.465 65.7471C106.763 65.9419 106.059 66.1329 105.377 66.3892C104.886 66.5736 104.434 66.8494 103.941 67.0229C103.751 67.0897 103.464 67.1817 103.256 67.1489C103.021 67.112 103.426 66.744 103.454 66.718C103.524 66.6523 104.356 66.086 104.31 65.9753C104.282 65.906 103.803 66.2169 103.803 66.2172C103.478 66.4388 103.244 66.7213 102.982 67.0076C102.827 67.1763 102.857 66.9951 102.907 66.8679C103.077 66.4324 103.442 66.1607 103.83 65.9276C104.069 65.7842 104.336 65.6738 104.527 65.4643C104.529 65.4621 104.739 65.1704 104.632 65.2139C104.391 65.3126 104.147 65.5822 103.966 65.7539C103.593 66.1095 103.257 66.5026 102.897 66.8713C102.647 67.1265 102.4 67.3567 102.416 67.7434C102.429 68.0431 102.564 68.452 102.931 68.452C103.366 68.452 103.853 68.1703 104.229 67.9938C104.848 67.703 105.463 67.396 106.027 67.0076C106.348 66.7868 106.665 66.5674 106.993 66.3569C107.174 66.2407 107.403 66.1115 107.535 65.9344C107.647 65.7832 107.232 65.8782 107.223 65.8799C106.826 65.9588 106.448 66.1037 106.063 66.224C105.923 66.2677 105.881 66.2536 105.911 66.1014C105.947 65.9245 106.06 65.8467 106.211 65.7641C106.352 65.687 107.331 65.2759 106.872 65.0794C106.509 64.9239 106.055 64.9729 105.71 65.1509C105.565 65.2262 104.79 65.7772 105.094 66.0401C105.308 66.2254 105.717 65.8313 105.821 65.713C106.024 65.4821 106.27 64.9888 105.951 64.7336C105.693 64.5273 105.555 64.9861 105.591 65.1611C105.676 65.5743 106.038 65.2192 106.119 65.0266C106.204 64.8266 106.247 64.5534 106.181 64.3401C106.115 64.1284 105.949 64.3219 105.922 64.4355C105.831 64.8073 106.175 65.0206 106.46 65.1577C106.537 65.1949 107.072 65.4061 107.158 65.4405C107.192 65.4537 107.575 65.6129 107.646 65.6244C107.881 65.6632 108.026 65.4779 108.15 65.311C108.338 65.0567 108.476 64.7831 108.703 64.5581C108.987 64.2777 109.287 64.0728 109.528 63.7541C109.869 63.3035 110.351 63.0202 110.749 62.6265C111.105 62.2743 111.433 61.8832 111.774 61.5159C112.016 61.2554 112.398 60.9763 112.507 60.6217C112.519 60.5827 112.518 60.508 112.497 60.4735C112.39 60.3019 112.367 60.1554 112.326 59.9556C112.301 59.8291 112.264 59.687 112.173 59.5911C112.123 59.5386 112.081 59.5123 112.081 59.4378" stroke="black" stroke-linecap="round"/>
<path d="M103.19 67.7468C103.173 67.821 102.891 67.9639 103.125 67.8763C103.505 67.7336 103.927 67.6448 104.263 67.4096" stroke="black" stroke-linecap="round"/>
<path d="M105.305 67.103C104.941 67.7185 104.278 68.1065 103.794 68.6155C103.582 68.839 103.439 69.3669 103.098 69.3957C102.637 69.4345 102.163 69.4103 101.999 68.8983C101.964 68.7904 101.928 68.5688 102.062 68.4963C102.337 68.3469 102.484 68.8813 102.481 69.038C102.477 69.2853 102.339 69.5087 102.093 69.5728C101.786 69.6527 101.537 69.4315 101.416 69.1725C101.183 68.6726 101.804 68.1971 102.287 68.3294C102.463 68.3777 102.679 68.5862 102.619 68.791C102.576 68.9375 102.442 68.8592 102.374 68.7978C102.219 68.6591 102.138 68.4636 102.096 68.2646C101.931 67.4835 102.458 66.9007 102.917 66.3501C103.37 65.8058 103.845 65.3877 104.441 65.0078C104.85 64.7475 105.272 64.4293 105.734 64.272C106.416 64.04 107.676 64.1032 107.683 65.0487C107.683 65.0917 107.689 65.2429 107.635 65.2735C107.536 65.3305 107.713 65.0489 107.795 64.9686C108.097 64.6742 108.512 64.5435 108.807 64.2447C109.144 63.9048 108.364 64.1074 108.225 64.1459C107.751 64.2769 107.278 64.3039 106.787 64.2754C106.525 64.2602 106.348 64.1838 106.119 64.0693C105.733 63.8762 105.482 64.0159 105.179 64.2652C104.825 64.5567 104.465 64.8528 104.053 65.0589C103.606 65.2825 103.278 65.5672 102.948 65.9481C102.336 66.6537 101.763 67.4377 101.602 68.3703C101.576 68.5205 101.514 68.9232 101.304 68.6462C101.227 68.5455 101.156 68.3997 101.132 68.2749C101.072 67.9665 101.49 68.7922 101.639 69.0686C101.855 69.4693 101.981 69.9053 102.183 70.3138C102.215 70.3788 102.314 70.6098 102.426 70.571C102.848 70.4262 102.938 69.8157 103.258 69.549C103.308 69.5072 103.365 69.5003 103.428 69.486C103.808 69.3995 104.173 69.2806 104.522 69.1044C104.791 68.9682 105.052 68.8023 105.257 68.5781C105.458 68.3599 105.583 68.0871 105.745 67.8422C106.034 67.4033 106.536 67.2153 106.869 66.827" stroke="black" stroke-linecap="round"/>
<path d="M112.84 60.2909C112.871 60.4284 112.996 60.71 112.883 60.8396C112.771 60.9674 112.634 61.0705 112.497 61.1697C112.249 61.3497 112.043 61.5528 111.85 61.7907C111.518 62.198 111.209 62.6288 110.856 63.0185C110.464 63.4517 109.96 63.7717 109.529 64.1661C109.179 64.4869 108.737 64.7268 108.426 65.0858C108.284 65.2493 108.18 65.4371 108.026 65.592C107.762 65.8579 107.443 66.0656 107.204 66.3576C106.957 66.66 106.826 66.9881 106.508 67.2301C106.18 67.4787 105.871 67.7311 105.511 67.9312" stroke="black" stroke-linecap="round"/>
<path d="M104.832 63.7149C104.574 63.7633 104.413 63.9748 104.26 64.1677C104.072 64.4029 103.893 64.6519 103.681 64.8657C103.457 65.0919 103.222 65.2556 102.952 65.4222C102.84 65.4912 102.592 65.733 102.694 65.4253C102.84 64.9811 103.362 64.97 103.609 64.6047C103.636 64.565 103.814 64.3505 103.719 64.5292C103.472 64.9932 103.103 65.3141 102.688 65.6171C102.238 65.945 101.821 66.3852 101.521 66.8559C101.469 66.9378 101.344 67.1829 101.226 67.1829C101.08 67.1829 101.071 67.0156 101.128 66.9157C101.199 66.7911 101.323 66.7199 101.455 66.6767C101.551 66.6454 101.568 66.6554 101.59 66.5509C101.592 66.5413 101.648 66.3141 101.663 66.3371C101.711 66.4149 101.629 66.5935 101.6 66.661C101.486 66.9195 101.322 67.0439 101.059 67.1106C101.009 67.1233 100.877 67.2173 100.899 67.1955" stroke="black" stroke-width="0.5" stroke-linecap="round"/>
<path d="M103.841 64.2526H103.983" stroke="black" stroke-width="0.5" stroke-linecap="round"/>
<path d="M104.973 63.7149C104.847 63.707 104.945 63.5094 105.003 63.4649C105.097 63.3926 105.236 63.3325 105.357 63.3486C105.593 63.3801 105.789 63.6701 106.02 63.7463C106.031 63.7498 106.428 63.8471 106.369 63.7369C106.304 63.6148 106.11 63.5258 105.995 63.4649C105.807 63.365 105.598 63.2863 105.417 63.1772C105.295 63.1041 105.738 63.1764 105.791 63.2055C106.045 63.3455 106.06 63.802 106.354 63.891C106.542 63.9482 106.428 63.6282 106.387 63.5687C106.315 63.4658 106.221 63.3814 106.152 63.2747C106.112 63.2117 106.088 63.157 106.024 63.1144C106.006 63.1026 105.787 62.9706 105.913 63.0531C106.129 63.1934 106.289 63.4097 106.514 63.5357C106.688 63.633 106.896 63.6517 107.086 63.6992C107.096 63.7017 107.3 63.7531 107.203 63.7715C107.028 63.8044 106.849 63.7308 106.722 63.6143C106.658 63.5566 106.514 63.3444 106.555 63.4194C106.648 63.5885 106.846 63.6707 107.025 63.7086C107.278 63.762 107.543 63.765 107.8 63.7699C107.914 63.7721 108.241 63.7946 107.919 63.8155C107.58 63.8376 107.254 63.7194 106.94 63.6049C106.815 63.5592 106.568 63.509 106.473 63.3973C106.41 63.3224 106.664 63.4438 106.756 63.4791C107.104 63.613 107.436 63.7026 107.809 63.7306C107.993 63.7444 108.369 63.7432 107.932 63.7432C107.67 63.7432 107.413 63.7329 107.152 63.7149" stroke="black" stroke-width="0.5" stroke-linecap="round"/>
<path d="M111.991 58.9326C111.983 58.8889 111.956 58.8572 111.935 58.8194" stroke="black" stroke-width="0.5" stroke-linecap="round"/>
<path d="M112.302 59.7532C112.524 59.7532 112.753 59.907 112.925 60.0362" stroke="black" stroke-width="0.5" stroke-linecap="round"/>
<path d="M111.85 59.8098C111.612 59.8891 111.653 60.2621 111.652 60.4513C111.649 60.7288 111.582 61.0392 111.438 61.2782C111.411 61.3219 111.304 61.4978 111.309 61.492C111.434 61.3385 111.552 61.1763 111.672 61.0188C111.76 60.9032 111.833 60.7753 111.894 60.6431C111.983 60.4468 111.688 60.7774 111.674 60.7971C111.382 61.186 111.047 61.4951 110.702 61.8347C110.579 61.9558 110.443 62.0676 110.328 62.1963C110.16 62.3835 110.443 62.0283 110.462 62.0092C110.837 61.6292 111.2 61.3354 111.369 60.8286" stroke="black" stroke-width="0.5" stroke-linecap="round"/>
<path d="M110.746 61.536C110.568 61.7063 110.36 61.8434 110.193 62.0249C109.913 62.3282 109.643 62.657 109.407 62.9949C109.236 63.2395 109.037 63.612 108.753 63.7448C108.615 63.8089 108.285 63.6475 108.503 63.6221C108.559 63.6155 108.656 63.616 108.665 63.696C108.678 63.8231 108.474 63.8357 108.583 63.674C108.733 63.4518 109.008 63.3628 109.256 63.3109C109.692 63.2192 110.059 63.1858 110.452 62.9399C110.661 62.8088 111.027 62.563 111.054 62.2749C111.079 62.0103 110.444 62.5273 110.397 62.6081C110.35 62.6905 110.593 62.5999 110.677 62.5547C110.905 62.4313 111.065 62.312 111.271 62.1617C111.375 62.0857 111.385 62.0529 111.167 62.2686C110.095 63.331 111.616 61.8381 110.322 63.1489" stroke="black" stroke-width="0.5" stroke-linecap="round"/>
<path d="M101.578 66.9691C101.243 67.3034 100.769 67.5922 100.573 68.035C100.502 68.1961 100.435 68.3652 100.405 68.5396C100.386 68.6492 100.394 68.8137 100.361 68.5821C100.322 68.3122 100.305 67.4933 100.333 67.7646C100.394 68.3751 100.353 68.8921 100.694 69.4247C100.753 69.5162 100.82 69.6668 100.905 69.736C100.968 69.7878 100.907 69.5725 100.905 69.4908C100.899 69.2953 100.899 69.0999 100.899 68.9044C100.899 68.5877 100.793 68.2584 100.715 67.9517C100.686 67.8407 100.546 67.6475 100.435 67.598C100.373 67.5704 100.458 67.7319 100.48 67.796C100.596 68.1361 100.727 68.4707 100.866 68.8022C101.029 69.1926 101.187 69.5984 101.439 69.9419C101.559 70.1053 101.686 70.2899 101.839 70.4246C102.029 70.5932 102.32 70.641 102.552 70.7264C102.688 70.7762 102.826 70.8305 102.952 70.9025C103.113 70.9952 103.274 70.7126 103.354 70.6069C103.548 70.352 103.669 70.025 103.909 69.8083C104.004 69.7229 104.583 69.3358 104.415 69.7344C104.299 70.0117 104.001 70.1405 103.768 70.3019C103.529 70.4672 103.658 70.2472 103.766 70.1164C104.055 69.7662 104.5 69.5697 104.87 69.321C105.247 69.067 105.637 68.8065 105.995 68.5255C106.55 68.0899 106.948 67.462 107.338 66.8842C107.488 66.6623 107.645 66.4636 107.844 66.2837C108.068 66.0811 108.326 65.9219 108.539 65.7052C108.885 65.3523 109.219 65.024 109.671 64.8185" stroke="black" stroke-width="0.5" stroke-linecap="round"/>
<path d="M100.757 69.9404C100.971 69.9569 101.128 70.1586 101.238 70.324C101.371 70.5233 101.458 70.6228 101.661 70.7484C101.9 70.8959 102.028 71.0476 102.32 71.099C102.542 71.1383 102.888 71.1875 103.106 71.1006" stroke="black" stroke-width="0.5" stroke-linecap="round"/>
<path d="M105.002 69.5725C104.758 69.6287 104.469 69.8729 104.279 70.03C104.09 70.1856 103.803 70.3656 103.672 70.5755C103.663 70.5891 103.598 70.6789 103.634 70.6604C103.959 70.4928 104.271 70.2665 104.572 70.0598C104.922 69.8202 105.161 69.4986 105.426 69.1763" stroke="black" stroke-width="0.5" stroke-linecap="round"/>
<path d="M110.378 62.2717C110.193 62.3222 110.074 62.5028 109.954 62.6396" stroke="black" stroke-width="0.5" stroke-linecap="round"/>
<path d="M113.123 60.0645C113.191 60.2232 113.41 60.3393 113.551 60.4245C113.633 60.4744 113.702 60.4753 113.61 60.5927C113.4 60.8635 113.056 61.0219 112.826 61.286C112.394 61.7826 111.917 62.242 111.507 62.7559C111.252 63.0752 110.992 63.3769 110.696 63.6583C110.455 63.8873 110.278 64.1631 110.051 64.4035C109.831 64.637 109.564 64.8272 109.3 65.0072C109.098 65.1442 108.883 65.2634 108.69 65.4128C108.533 65.5344 108.397 65.6822 108.243 65.8089C107.878 66.1108 107.623 66.48 107.327 66.8449C107.224 66.9716 106.887 67.2435 106.91 67.4313C106.922 67.5233 107.383 67.3153 107.426 67.26C107.493 67.172 107.508 67.0448 107.55 66.944C107.6 66.8247 107.672 66.7247 107.762 66.6327C107.864 66.5291 108.164 66.2536 108.033 66.6107C107.928 66.8966 107.602 67.0913 107.368 67.2615C107.278 67.3267 106.916 67.51 106.96 67.6703C107.003 67.8248 107.397 67.4037 107.407 67.3936" stroke="black" stroke-width="0.5" stroke-linecap="round"/>
<path d="M113.576 60.4324C113.598 60.3535 113.847 60.5002 113.915 60.5173" stroke="black" stroke-width="0.5" stroke-linecap="round"/>
<path d="M113.746 60.7154C113.64 60.9181 113.513 61.103 113.37 61.2813C113.294 61.3763 113.206 61.5085 113.095 61.5643" stroke="black" stroke-width="0.5" stroke-linecap="round"/>
<path d="M113.18 61.0549C113.072 61.3575 112.786 61.6379 112.576 61.8724C112.411 62.0567 112.236 62.2257 112.048 62.3849" stroke="black" stroke-width="0.5" stroke-linecap="round"/>
<path d="M112.953 61.5643C112.784 61.8818 112.604 62.1858 112.353 62.4478C112.137 62.6733 111.877 62.8288 111.63 63.0137C111.125 63.3906 110.831 63.9741 110.35 64.3736C110.33 64.3905 110.26 64.4281 110.279 64.4098C110.347 64.3449 110.487 64.2637 110.551 64.2258C110.845 64.0517 111.326 63.8954 111.507 63.5828C111.515 63.5693 111.609 63.2976 111.538 63.3659C111.209 63.687 110.885 63.9915 110.523 64.2793C110.183 64.5499 109.874 64.8236 109.608 65.1691C109.407 65.4299 109.222 65.7191 108.929 65.8875C108.724 66.0052 108.488 66.0426 108.256 66.0605C108.142 66.0692 108.208 66.222 108.209 66.3151C108.21 66.4574 108.27 66.4645 108.391 66.3843C108.762 66.1388 108.969 65.6478 109.287 65.3404C109.816 64.8294 110.491 64.5231 111.043 64.0435C111.432 63.7056 111.696 63.3008 111.906 62.8377" stroke="black" stroke-width="0.5" stroke-linecap="round"/>
<path d="M111.595 63.0641C111.75 62.9137 111.912 62.7786 112.076 62.6396" stroke="black" stroke-width="0.5" stroke-linecap="round"/>
<path d="M114.934 54.5182C115.03 54.4257 115.127 54.3341 115.225 54.2431C115.33 54.1448 115.573 53.9962 115.646 53.8674C115.715 53.7473 115.406 54.0054 115.293 54.0843C115.005 54.2838 114.937 54.3432 114.654 54.5528C114.537 54.6401 114.435 54.7782 114.29 54.798C114.271 54.8006 114.266 54.763 114.271 54.7446C114.301 54.6126 114.45 54.3919 114.51 54.306C114.731 53.9864 114.999 53.6662 115.332 53.457C115.595 53.2915 115.361 53.8625 115.33 53.9805" stroke="black" stroke-width="0.5" stroke-linecap="round"/>
<path d="M116.066 54.688C115.875 54.5969 115.877 54.2267 115.943 54.0623C116.007 53.904 116.081 54.0537 116.093 54.1346C116.15 54.5312 115.921 54.8629 115.538 54.9757C115.146 55.0908 114.291 54.8671 114.885 54.4176C115.012 54.3216 115.279 54.1554 115.456 54.2289C115.77 54.3594 115.54 55.0143 115.434 55.1911C115.382 55.2784 115.044 55.6304 114.962 55.3294C114.886 55.047 115.201 54.7152 115.403 54.5811C115.87 54.2699 117.284 54.1852 116.83 55.0936C116.764 55.225 116.649 55.3983 116.487 55.4269C116.437 55.4358 116.382 55.4043 116.402 55.342C116.438 55.2332 116.575 55.1226 116.66 55.0716C116.834 54.9679 117.137 54.8373 117.343 54.9364C117.63 55.0752 117.354 55.4284 117.195 55.5228C117.08 55.591 116.81 55.6959 116.682 55.5778C116.545 55.4513 116.749 55.2308 116.83 55.1643C117.029 55.0019 117.31 54.8961 117.569 54.9018C117.921 54.9096 117.467 55.2167 117.393 55.2476C117.023 55.4019 116.287 55.2679 116.413 54.7241C116.445 54.5869 116.534 54.5006 116.654 54.4365C116.735 54.3932 116.367 54.5481 116.321 54.5528C116.102 54.5752 115.823 54.537 115.756 54.2824C115.694 54.0444 115.867 53.7985 116.053 53.6724C116.15 53.6069 116.416 53.516 116.428 53.729C116.448 54.108 115.916 54.31 115.627 54.3531C115.494 54.3731 115.087 54.4098 115.094 54.1535C115.1 53.9616 115.338 53.6924 115.535 53.6756C115.682 53.663 115.571 53.9363 115.563 53.957C115.415 54.3264 115.111 54.6502 114.714 54.7462C114.566 54.782 114.366 54.7765 114.249 54.6597C114.211 54.622 114.197 54.5494 114.257 54.5276C114.295 54.5137 114.333 54.5382 114.34 54.5779C114.366 54.7224 114.244 54.8664 114.142 54.949C114.078 55.0002 113.944 55.0842 113.853 55.0842C113.744 55.0842 114.027 54.9785 114.077 54.982C114.283 54.9961 113.706 55.1926 113.5 55.2021C113.175 55.2171 113.667 54.9543 113.724 54.9364C114.113 54.814 114.671 54.706 115.069 54.8593C115.455 55.0077 115.703 55.335 115.969 55.6312C116.336 56.0411 116.822 56.0696 117.319 55.9142C117.652 55.8102 118.155 55.7218 118.405 55.4583C118.493 55.366 118.481 55.1915 118.512 55.0731C118.563 54.8772 118.227 54.8699 118.111 54.8719C117.667 54.8795 117.432 55.1231 117.173 55.4552C116.935 55.7596 116.861 56.0418 116.786 56.4063C116.782 56.4242 116.755 56.4666 116.751 56.4487C116.707 56.2412 116.673 56.0284 116.632 55.8199" stroke="black" stroke-linecap="round"/>
<path d="M116.377 52.8203C116.029 52.8652 115.635 53.163 115.399 53.4067C115.057 53.7611 114.829 54.1767 114.418 54.4585C114.395 54.4745 114.256 54.5642 114.313 54.4506C114.431 54.2153 114.76 54.0701 114.972 53.9397C115.06 53.8858 115.447 53.6923 115.392 53.5341C115.279 53.2158 114.461 53.9679 114.389 54.0764C113.875 54.8431 115.462 55.1881 115.73 55.7224C115.767 55.7963 115.776 55.9381 115.653 55.8781C115.517 55.8121 115.549 55.6637 115.443 55.5935C115.117 55.3758 114.615 55.2046 114.227 55.2256C114.156 55.2294 114.402 55.4299 114.422 55.4394C114.501 55.4788 114.517 55.4896 114.566 55.4237" stroke="black" stroke-linecap="round"/>
<path d="M115.585 52.594C115.365 52.594 115.191 52.7029 115.098 52.9084C115.044 53.0253 115.016 53.1763 114.947 53.2841C114.846 53.4394 114.745 53.594 114.651 53.7542" stroke="black" stroke-width="0.5" stroke-linecap="round"/>
<path d="M114.368 53.8674C113.999 53.9242 113.756 54.3697 113.485 54.5842C113.351 54.6895 113.475 54.4512 113.504 54.3987C113.53 54.3488 113.592 54.2926 113.499 54.328C113.356 54.3824 113.211 54.4312 113.068 54.4852C112.918 54.5417 112.925 54.5705 112.925 54.7257C112.925 55.037 113.112 54.776 113.233 54.6503C113.271 54.6104 113.715 54.2516 113.62 54.1566C113.575 54.112 113.602 54.4366 113.604 54.4616" stroke="black" stroke-width="0.5" stroke-linecap="round"/>
<path d="M113.123 55.0558C113.105 55.09 113.032 55.2636 112.982 55.2476C112.932 55.232 112.947 55.0502 112.931 55.0999C112.894 55.2188 112.998 55.46 113.044 55.5715C113.101 55.7065 113.125 55.7057 113.236 55.6501" stroke="black" stroke-width="0.5" stroke-linecap="round"/>
</g>
<defs>
<clipPath id="clip0_2_119">
<rect width="229" height="207" fill="white"/>
</clipPath>
</defs>
</svg>
